<svg xmlns="http://www.w3.org/2000/svg" viewBox="0 0 190.9 199.95"><defs><style>.cls-1{fill:#7ac943;}</style></defs><title>businessCardsAsset 2</title><g id="Layer_2" data-name="Layer 2"><g id="Layer_1-2" data-name="Layer 1"><path class="cls-1" d="M151.51,132.66a98.16,98.16,0,0,0-8.19,7.5,90.39,90.39,0,0,1,8.37,29.77,5.34,5.34,0,1,0,10.64-1A101.5,101.5,0,0,0,151.51,132.66ZM117.16,89.31c-4.5-3.7-9.22-5.06-14-4-3.68.8-7.22,3-10.78,6.71-5.54-2.56-11.49,1.85-13.46,3.3-.13.09-5.53,4.3-13.36,11.64,3.33-14,8.55-32.4,12.93-47.16,29-21,41.78-41.2,34.15-54.39A10.1,10.1,0,0,0,102.8,0C92,1,80.49,19.17,76.13,31.16c-.8,2.2-3.52,10.8-6.9,22l-.67.47C43.65,71,29.1,74,21.06,73.29,8.6,60.51,6.56,61.08,4.17,61.72A5.64,5.64,0,0,0,.11,66.16C-.59,69.93,2,76.09,8.16,80.08a24.34,24.34,0,0,0,7.53,3.18c7,7.41,16,17.36,24.16,26.78a5.35,5.35,0,0,0,8.08-7c-6.9-7.93-12.6-14.37-17.36-19.6,8.79-1.51,19.93-5.73,34-14.36-3.72,13-7.54,27-10.09,38.05-1.06,4.6-2.44,9.73-4,15.08A220.87,220.87,0,0,0,23,158.89c-6.65,11.39-13,33.21-8.31,38.61A7.19,7.19,0,0,0,20.17,200h.07c4.08,0,8.8-2.94,14-8.75,5.73-6.34,18-38.2,25.68-63.49a249,249,0,0,1,22.48-21.57c-1.25,2.25-2.55,4.7-3.86,7.36C70,130.8,60.42,174.19,64.11,184.88c1.73,5.05,5.38,5.69,6.87,5.73,2.81.09,8,.24,17.66-23.14,11.37-27.6,10.17-51.07,9.53-63.68v-.29c0-.44-.06-1.06-.13-1.8,3.23-4.1,5.65-5.58,7.33-5.94.62-.14,2.22-.49,5,1.8a124.69,124.69,0,0,1,14.54,14.53,80.89,80.89,0,0,1,6-9.29A129.14,129.14,0,0,0,117.16,89.31Zm-31-54.49C90.86,22,100,11.74,103.34,10.77c2.42,4.19-1.56,15.57-19.45,31.09C85,38.31,85.83,35.82,86.19,34.82ZM26.32,184c-.72.81-1.39,1.49-2,2.09a71.9,71.9,0,0,1,7.92-21.83c2.65-4.51,5.52-8.91,8.52-13.13C34.72,167.57,28.72,181.38,26.32,184Zm52.42-20.65c-1.63,4-3.19,7.26-4.56,9.87,1.27-13.64,6.74-39.83,13.64-54.29A121.86,121.86,0,0,1,78.74,163.38Z"/><path class="cls-1" d="M160.46,116.86c6-4.29,11.21-8,15-12,16.41-17.59,18.81-48.79,11.65-68.78-6.25-17.44-14.62-18.88-23.36-18.88h0a2.49,2.49,0,0,0-2.1.84,3.15,3.15,0,0,0,0,2.81c5.54,15.47,3.9,50.69-23.28,84.3-14.11,17.45-18.15,39-22.06,59.86-.31,1.63,0,2.6.55,2.74.67.18,2-.56,2.72-2.73C128.44,139.64,146.2,127,160.46,116.86Z"/></g></g></svg>