<svg xmlns="http://www.w3.org/2000/svg" viewBox="0 0 99.84 99.84"><defs><style>.cls-1{fill:#00ac94;}</style></defs><g id="Layer_2" data-name="Layer 2"><g id="Layer_1-2" data-name="Layer 1"><path class="cls-1" d="M41.94,51.05C55.05,36,56.08,11.74,48.43,0H18.12A18.12,18.12,0,0,0,0,18.12v63.6A18.12,18.12,0,0,0,18.12,99.84h6.42C19.21,80.23,28.38,66.67,41.94,51.05Z"/><path class="cls-1" d="M81.72,0H55.5c20.69,13.18,31.59,45.75,8.08,64.07-24.07,18.76-35.37,19.4-36.2,35.77H81.72A18.12,18.12,0,0,0,99.84,81.72V18.12A18.12,18.12,0,0,0,81.72,0Z"/></g></g></svg>