<svg xmlns="http://www.w3.org/2000/svg" viewBox="0 0 45.02 73.07"><defs><style>.cls-1{fill:#f3b11e;}</style></defs><g id="Layer_2" data-name="Layer 2"><g id="Layer_1-2" data-name="Layer 1"><path class="cls-1" d="M29,69.31V2a2,2,0,0,0-2-2c-.68,0-6.74.26-8.95,2.63s-2.95,5.71-2.43,10.1a3.41,3.41,0,0,1-1,2.51c-.21.15-.54.29-1.25,0A10.13,10.13,0,0,0,.85,20.35c-1.73,3.7-1.23,9,5.4,12.84,2,1.15,4.31,3.13,4.19,6.05A5.13,5.13,0,0,1,8.21,43.4c-4.77,2.55-5.76,9-3.67,13.22a8.21,8.21,0,0,0,7.63,4.63,14.6,14.6,0,0,0,6-1.47c5.39-2.48,6.81-.63,7.28,0a2,2,0,0,0,.76.6c0,7.44-.72,9.5-1,10.29a2.6,2.6,0,0,0-.12.38,1.61,1.61,0,0,0,.19,1.31,1.65,1.65,0,0,0,1.11.69,3.15,3.15,0,0,0,.53,0,3.84,3.84,0,0,0,1.32-.25C28.56,72.7,29.41,72.39,29,69.31ZM25,54.84c-2.3-.67-5.15-.23-8.51,1.32-2.35,1.08-6.58,2.35-8.4-1.31C6.85,52.34,7.43,48.33,10,47c2-1,4.27-4,4.41-7.55.09-2.22-.6-6.42-6.18-9.65C4.54,27.61,3.16,24.8,4.46,22a6.1,6.1,0,0,1,7.63-3,5.06,5.06,0,0,0,5-.57,7.23,7.23,0,0,0,2.58-6.05c-.39-3.26.07-5.63,1.36-7C22,4.28,24,4,25,3.94l0,50.88Z"/><polygon class="cls-1" points="35.31 37.44 44.46 23.54 39.78 23.54 31.08 37.53 40.35 54.7 45.02 54.7 35.31 37.44"/></g></g></svg>