<svg width="59" height="28" viewBox="0 0 59 28" fill="none" xmlns="http://www.w3.org/2000/svg">
<path fill-rule="evenodd" clip-rule="evenodd" d="M32.7672 1.25814C32.4868 1.56802 32.4692 1.69963 32.6543 2.10542C32.7747 2.36973 32.8314 2.62764 32.7806 2.6787C32.6585 2.80061 31.7121 2.18633 31.5176 1.85905C31.4339 1.7183 31.1552 1.52318 30.898 1.42544C30.1809 1.15271 29.5647 1.63355 29.5647 2.46565C29.5647 3.35448 30.553 4.30225 32.2089 5.00183C34.2075 5.84619 34.1407 5.69811 34.1407 9.28274C34.1407 12.1855 34.1182 12.3865 33.7552 12.7147C33.2409 13.1798 32.6764 14.3121 32.6764 14.8782C32.6764 15.427 32.5203 15.4636 29.1071 15.716C27.7984 15.8128 26.4394 15.9777 26.087 16.0826C25.7347 16.1875 24.6639 16.3541 23.7075 16.4529C21.5824 16.6724 16.2428 17.6066 14.3725 18.0862C11.8323 18.7376 6.40395 19.3123 4.62573 19.1179C3.94611 19.0438 3.39021 18.9236 3.39021 18.8511C2.75018 18.7461 2.99909 18.9215 2.52811 18.8099C2.12358 18.7141 2.01713 18.8153 1.63922 18.7141C1.27727 18.671 1.00659 18.671 0.814195 18.671C0.336648 18.865 0.426645 18.7872 0.407243 19.4657C0.382533 20.3419 0.811199 20.7204 2.3835 21.2108C4.18057 21.7711 8.00261 21.9155 10.1769 21.5049C11.0405 21.342 12.0756 21.2086 12.4774 21.2086C12.8789 21.2086 13.8198 21.045 14.568 20.8449C16.3309 20.3734 23.1487 19.1959 24.1355 19.1924C24.5544 19.191 25.4147 19.0678 26.0473 18.9186C27.8324 18.4978 29.6193 18.3871 30.7961 18.6243C31.3772 18.7414 32.176 18.8573 32.5712 18.8816L33.2894 18.9261L33.315 22.2181C33.3415 25.6565 33.5861 27.0984 34.1616 27.2092C34.3155 27.2388 34.5339 27.0603 34.6468 26.8123C34.9309 26.1889 35.3731 23.9445 35.5254 22.3526L35.6523 21.0256L36.5896 21.0243C37.5612 21.023 40.0477 20.2826 40.5408 19.8479C40.9581 19.4802 46.0864 16.9493 46.0113 17.1484C45.9028 17.4356 42.3165 20.673 41.8283 20.9245C41.5766 21.0541 40.9177 21.2635 40.364 21.3898C38.9689 21.7083 37.2238 22.4533 36.8405 22.8942C36.2041 23.6262 36.5932 24.8932 37.5262 25.1275C37.8295 25.2036 38.4066 25.0782 39.1827 24.7678C39.9139 24.4753 40.9089 24.2509 41.7606 24.1865C42.8706 24.1025 43.2542 23.9919 43.6807 23.6331C43.9737 23.3866 44.7681 23.0198 45.4461 22.8179C47.7659 22.1276 53.0839 20.0752 54.6754 19.2561C57.5369 17.7834 58.4618 16.6343 58.1986 14.8791C57.9101 12.9554 54.9392 10.8785 48.6008 8.16968C46.1868 7.13807 38.1659 4.42306 36.5608 4.09451C36.0522 3.99036 35.8571 3.78115 35.2796 2.71952C34.3536 1.01763 33.4569 0.495967 32.7672 1.25814ZM41.325 8.0551C43.8165 8.88079 45.8552 9.61898 45.8552 9.6953C45.8552 9.77181 45.4064 9.96473 44.8578 10.1242C44.3092 10.2836 43.8101 10.4954 43.7488 10.5948C43.6873 10.6941 43.5205 10.7754 43.3781 10.7754C43.2357 10.7754 42.5198 11.0723 41.7873 11.4351C40.5899 12.0281 36.8702 13.704 36.751 13.704C36.7248 13.704 36.7043 13.5598 36.7054 13.3837C36.7067 13.2076 36.9745 12.8813 37.3003 12.6589C37.6263 12.4363 38.2332 12.0126 38.6491 11.7171C39.0652 11.4217 39.6006 11.1201 39.8389 11.0469C40.7689 10.7611 41.0114 10.1084 40.4272 9.46285C39.9818 8.97066 39.3485 9.05028 37.9506 9.77365L36.7032 10.4192L36.7016 9.45333C36.7009 8.92215 36.6482 8.05491 36.5846 7.52648C36.5211 6.99805 36.5425 6.56296 36.632 6.55967C36.7215 6.55656 38.8334 7.22941 41.325 8.0551ZM50.3191 11.5749C53.8137 13.2505 55.7393 14.559 55.7393 15.2584C55.7393 15.6303 53.6464 16.7463 51.0385 17.7651C49.7982 18.2496 48.6972 18.6461 48.5921 18.6461C48.4871 18.6461 49.0225 17.9476 49.7821 17.0937C51.112 15.599 51.1633 15.5073 51.1633 14.6227C51.1633 13.525 50.7289 12.9719 49.867 12.9719C48.9758 12.9719 46.6832 13.8179 44.3451 15.0095C43.1621 15.6124 42.197 16.0389 42.2001 15.9572C42.2032 15.8758 42.5907 15.5207 43.0613 15.1683C43.5318 14.816 44.456 14.0683 45.1148 13.5069C45.7737 12.9453 46.4607 12.4317 46.6413 12.3655C47.0601 12.2119 47.515 11.1375 47.3801 10.6213C47.3233 10.404 47.3285 10.2263 47.3916 10.2263C47.4548 10.2263 48.7723 10.8333 50.3191 11.5749ZM39.7563 14.9218C39.6906 14.9877 38.8737 15.6036 37.9411 16.2907C36.7633 17.1589 36.2279 17.4591 36.1874 17.2746C36.0652 16.7163 36.6042 16.0297 37.3439 15.8013C37.7466 15.677 38.4055 15.4046 38.8082 15.1962C39.531 14.8217 39.989 14.6893 39.7563 14.9218Z" fill="black"/>
</svg>
