<svg xmlns="http://www.w3.org/2000/svg" viewBox="0 0 277.61 412.71"><defs><style>.cls-1{fill:#3fa9f5;}</style></defs><g id="Layer_2" data-name="Layer 2"><g id="Layer_1-2" data-name="Layer 1"><path class="cls-1" d="M10.65,412.71a10.64,10.64,0,0,1-5.8-19.56c50-32.49,73.9-85.69,85.12-124.6a337.35,337.35,0,0,0,11.24-58.39L16.44,265.22A10.65,10.65,0,0,1,0,256.29V110.52a10.62,10.62,0,0,1,4.85-8.92L107.38,35a10.63,10.63,0,0,1,16.43,8.92V170.11l30-19.47v-140a10.64,10.64,0,0,1,21.28,0V136.82l86.1-55.91a10.63,10.63,0,0,1,16.43,8.92V235.6a10.64,10.64,0,0,1-4.84,8.93L170.24,311.11a10.64,10.64,0,0,1-16.44-8.92V176l-30.14,19.58a350,350,0,0,1-13.07,78.26C93.1,334.93,60.54,382.35,16.44,411A10.62,10.62,0,0,1,10.65,412.71ZM175.08,162.19V282.6l81.26-52.77V109.42ZM21.28,116.3V236.7l81.26-52.77V63.53Z"/></g></g></svg>