<svg width="621" height="471" viewBox="0 0 621 471" fill="none" xmlns="http://www.w3.org/2000/svg">
<path fill-rule="evenodd" clip-rule="evenodd" d="M373.881 149.771C373.787 150.253 377.518 171.862 382.172 197.792C389.27 237.342 390.83 245.209 391.849 246.632C392.518 247.565 393.557 248.742 394.157 249.249C394.758 249.756 395.762 250.081 396.388 249.971C397.015 249.861 397.481 249.507 397.424 249.185C397.368 248.862 396.851 248.434 396.277 248.233C395.702 248.032 394.565 246.428 393.749 244.668C392.549 242.076 391.213 235.475 386.723 209.932C383.674 192.586 379.818 171.715 378.153 163.551C376.489 155.387 374.886 148.749 374.59 148.801C374.294 148.853 373.975 149.29 373.881 149.771ZM59.0243 230.679C58.9106 231.263 59.6652 235.548 60.7013 240.199C61.7379 244.85 63.1907 250.505 63.9298 252.764C64.6688 255.024 66.0987 259.878 67.1062 263.551C68.1143 267.224 70.6966 277.768 72.845 286.984C74.9928 296.199 76.6908 303.823 76.6175 303.928C76.5449 304.032 74.9404 303.69 73.0529 303.167C71.1649 302.646 68.1609 301.328 66.3769 300.238C64.5931 299.149 62.9412 297.678 62.7059 296.968C62.4707 296.26 61.9113 295.625 61.4621 295.56C60.9065 295.48 60.7759 296.182 61.0537 297.765C61.4 299.737 61.9773 300.427 64.8782 302.333C66.7572 303.568 70.4735 305.163 73.1369 305.879L77.9788 307.18L78.672 311.129C79.0533 313.3 80.0251 317.202 80.8322 319.798C81.6386 322.394 82.9806 326.689 83.8142 329.343C84.6478 331.997 85.8383 335.367 86.459 336.833C87.0804 338.299 88.0199 340.138 88.5473 340.921C89.0741 341.703 89.9931 342.759 90.5895 343.267C91.1851 343.774 92.0465 344.125 92.5033 344.044C93.0145 343.955 93.2085 343.186 93.0085 342.047C92.8029 340.876 92.3673 340.25 91.8241 340.346C91.2697 340.443 90.3624 339.077 89.2684 336.499C88.3357 334.3 86.9473 330.607 86.1825 328.291C85.4177 325.975 84.1285 321.966 83.3166 319.382C82.5053 316.798 81.5315 312.918 81.1528 310.761L80.4643 306.839L82.8735 306.969C84.199 307.042 87.6445 306.688 90.5309 306.184C93.4172 305.679 97.6171 304.527 99.8632 303.623C102.11 302.719 104.803 301.249 105.849 300.356C106.894 299.463 108.012 298.687 108.332 298.631C108.652 298.574 109.077 299.431 109.276 300.533C109.476 301.635 110.483 304.951 111.514 307.9C112.545 310.85 114.288 314.983 115.388 317.084C116.488 319.185 117.802 321.475 118.309 322.174C118.815 322.872 119.483 323.4 119.792 323.345C120.101 323.291 120.015 322.376 119.6 321.311C119.185 320.247 117.935 317.244 116.823 314.64C115.711 312.035 114.207 308.147 113.481 305.999C112.754 303.852 111.434 299.645 110.548 296.651C109.661 293.657 107.932 287.231 106.705 282.371C105.477 277.512 103.706 270.807 102.768 267.472C101.83 264.137 100.419 259.373 99.6308 256.887C98.8436 254.4 97.6241 250.748 96.922 248.772C96.2193 246.795 95.1319 243.979 94.5056 242.514C93.8788 241.049 92.7076 238.463 91.9026 236.767C90.963 234.785 90.1071 233.741 89.5089 233.846C88.7885 233.973 88.7466 234.448 89.3259 235.946C89.7376 237.012 90.4315 238.536 90.8676 239.335C91.3037 240.133 92.2454 242.402 92.9604 244.376C93.6755 246.351 94.866 249.721 95.6065 251.866C96.3464 254.011 98.0326 259.585 99.3541 264.253C100.676 268.921 102.707 276.439 103.87 280.96C105.033 285.481 106.346 290.635 106.788 292.414L107.592 295.649L104.994 297.56C103.566 298.611 101.185 300.039 99.7034 300.733C97.9883 301.538 94.0541 302.438 88.8741 303.213C84.399 303.882 80.4159 304.199 80.0223 303.919C79.6287 303.638 78.0836 298.182 76.5888 291.794C75.0933 285.407 72.4654 274.701 70.7474 268.002C69.03 261.304 67.0092 254.07 66.2576 251.927C65.5059 249.784 64.0935 244.019 63.1188 239.115C62.1447 234.211 61.2967 229.994 61.2353 229.742C61.1732 229.49 60.6972 229.359 60.1774 229.45C59.657 229.541 59.1387 230.094 59.0243 230.679ZM464.35 189.814C463.376 191.46 462.08 194.629 461.469 196.858C460.858 199.087 459.924 203.507 459.394 206.681C458.864 209.856 458.039 214.432 457.562 216.851C457.085 219.269 456.538 222.064 456.347 223.06C456.156 224.055 455.601 224.941 455.114 225.026C454.627 225.112 453.494 224.086 452.597 222.747C451.7 221.408 449.907 217.785 448.613 214.697C447.319 211.608 445.583 206.113 444.755 202.486C443.926 198.859 442.95 195.772 442.586 195.627C442.221 195.481 441.764 195.759 441.57 196.245C441.376 196.732 441.808 199.771 442.53 202.999C443.253 206.227 444.41 210.344 445.102 212.148C445.794 213.951 447.098 217.191 448 219.348C448.902 221.505 450.431 224.238 451.397 225.421C452.364 226.605 453.885 227.79 454.777 228.055C455.779 228.352 456.748 228.262 457.313 227.819C457.816 227.425 458.489 225.965 458.809 224.575C459.13 223.185 460.211 217.466 461.212 211.865C462.213 206.265 463.525 199.878 464.129 197.672C464.732 195.466 465.935 192.695 466.801 191.516L468.376 189.37L468.662 190.999C468.819 191.895 468.038 195.45 466.927 198.899C465.816 202.349 464.117 207.293 463.151 209.886C462.186 212.478 461.426 215.805 461.462 217.278C461.499 218.751 461.792 220.46 462.114 221.076C462.435 221.692 463.853 222.602 465.266 223.099C467.26 223.8 469.643 223.826 475.938 223.213C480.395 222.78 488.172 221.875 493.219 221.204C501.345 220.125 502.42 219.862 502.606 218.912C502.72 218.322 502.449 217.583 502.001 217.269C501.512 216.926 498.023 217.169 493.273 217.877C488.921 218.525 481.644 219.436 477.102 219.901C472.56 220.365 467.78 220.505 466.479 220.211C464.367 219.735 464.125 219.486 464.21 217.886C464.263 216.901 464.521 215.341 464.782 214.42C465.044 213.499 466.613 208.785 468.269 203.945C470.251 198.152 471.242 194.133 471.168 192.186C471.107 190.559 470.752 188.545 470.38 187.711C469.848 186.517 469.321 186.261 467.911 186.508C466.569 186.744 465.675 187.574 464.35 189.814ZM420.305 208.248C419.55 208.717 419.107 209.58 419.238 210.327C419.426 211.397 419.637 211.466 420.544 210.754C421.139 210.288 421.922 209.854 422.284 209.79C422.646 209.727 422.488 210.322 421.933 211.113C421.379 211.904 420.73 214.267 420.493 216.365L420.061 220.179L417.975 218.157C416.829 217.044 414.767 215.553 413.394 214.842C412.021 214.131 409.79 213.36 408.437 213.129C407.083 212.898 404.362 212.98 402.39 213.311C400.419 213.641 398.124 214.435 397.291 215.076C396.458 215.716 395.158 217.171 394.401 218.312C393.644 219.451 392.854 221.825 392.643 223.585C392.308 226.402 392.409 226.986 393.486 228.443C394.159 229.353 394.84 230.819 394.998 231.7C395.157 232.581 395.94 234.595 396.74 236.175C397.539 237.755 399.148 240.193 400.315 241.593C401.483 242.992 403.139 244.685 403.997 245.355C404.855 246.026 406.465 246.86 407.574 247.21C408.789 247.594 411.317 247.568 413.927 247.147C417.227 246.614 418.653 246.085 419.904 244.93C420.808 244.096 422.155 242.63 422.898 241.672L424.249 239.93L425.599 241.367C426.341 242.158 428.199 243.127 429.729 243.522C431.259 243.916 433.904 244 435.608 243.709C437.679 243.355 439.503 242.554 441.108 241.297C442.428 240.262 444.355 238.455 445.392 237.282C446.428 236.109 447.594 233.913 447.985 232.401C448.44 230.635 448.447 228.219 448.002 225.638C447.452 222.446 446.793 220.892 444.785 218.052C443.357 216.034 440.426 213.129 438.045 211.372C435.727 209.662 432.403 207.829 430.659 207.297C428.56 206.658 426.492 206.519 424.542 206.888C422.922 207.195 421.015 207.807 420.305 208.248ZM433.243 211.843C435.151 212.996 437.461 214.523 438.377 215.238C439.294 215.952 441.168 218.031 442.542 219.858C444.164 222.015 445.202 224.105 445.503 225.819C445.758 227.271 445.808 229.292 445.614 230.312C445.421 231.331 444.655 233.084 443.912 234.208C443.17 235.333 441.494 237.164 440.189 238.278C438.16 240.009 437.258 240.36 433.975 240.695C430.509 241.047 429.914 240.905 427.856 239.227L425.576 237.367L424.049 228.172C422.86 221.008 422.66 218.389 423.146 216.32C423.489 214.86 424.116 213.104 424.54 212.417C424.964 211.73 425.679 211.103 426.129 211.024C426.579 210.945 427.244 211.544 427.606 212.356C427.968 213.167 428.512 213.788 428.814 213.735C429.117 213.681 429.219 212.804 429.04 211.786C428.861 210.767 428.954 209.892 429.245 209.841C429.537 209.79 431.336 210.691 433.243 211.843ZM407.62 216.193C408.909 216.319 411.462 217.336 413.292 218.454C415.123 219.57 417.352 221.455 418.245 222.642C419.563 224.392 420.092 226.065 421.046 231.499C422.19 238.012 422.183 238.251 420.803 240.08C420.021 241.114 418.831 242.38 418.156 242.891C417.481 243.402 415.106 244.14 412.878 244.531C409.138 245.188 408.62 245.113 406.142 243.554C404.666 242.626 402.504 240.643 401.338 239.148C400.172 237.653 398.634 235.19 397.919 233.675C397.172 232.089 396.368 228.886 396.027 226.128C395.459 221.554 395.515 221.239 397.243 219.194C398.711 217.455 399.641 216.948 402.164 216.508C403.874 216.209 406.329 216.068 407.62 216.193ZM313.124 235.317C313.099 236.371 312.904 237.255 312.69 237.282C312.475 237.308 311.689 237.017 310.943 236.634C310.095 236.199 308.181 236.185 305.846 236.597C303.297 237.046 301.579 237.721 300.453 238.718C299.545 239.522 298.036 241.29 297.101 242.645C296.167 244 294.577 246.924 293.569 249.142C292.562 251.36 291.29 254.876 290.744 256.956C289.992 259.819 289.915 262.023 290.425 266.028C291.096 271.294 291.111 271.328 293.61 273.351C296.037 275.316 296.278 275.366 300.88 274.859C305.493 274.351 305.741 274.245 308.946 271.437C310.764 269.843 313.474 266.645 314.968 264.331C316.462 262.017 318.054 258.86 318.508 257.317L319.332 254.512L321.256 257.782C322.314 259.58 324.232 262.123 325.518 263.432C326.804 264.741 329.002 266.329 330.404 266.96C332.244 267.788 333.772 267.964 335.896 267.591C338.008 267.22 338.797 266.829 338.688 266.21C338.595 265.684 337.29 265.268 335.355 265.148C332.904 264.997 331.434 264.395 328.942 262.52C327.042 261.09 324.864 258.675 323.66 256.661C322.381 254.524 321.272 251.62 320.708 248.939C320.211 246.577 319.127 242.552 318.298 239.997C317.47 237.441 316.39 234.838 315.9 234.213C315.41 233.588 314.595 233.149 314.089 233.238C313.561 233.331 313.15 234.216 313.124 235.317ZM208.725 256.82C208.032 257.251 207.04 259.241 206.456 261.37C205.884 263.45 205.349 267.073 205.267 269.419C205.184 271.766 205.255 274.664 205.424 275.859C205.593 277.054 205.663 278.714 205.579 279.548C205.428 281.041 205.375 281.032 202.046 279.001C199.769 277.61 198.581 276.451 198.404 275.446C198.26 274.627 197.865 274.004 197.525 274.064C197.186 274.124 197.093 275.229 197.32 276.521C197.637 278.323 198.287 279.284 200.113 280.647C201.422 281.625 203.326 282.684 204.344 283C205.808 283.455 206.271 284.01 206.559 285.652C206.76 286.794 207.821 288.922 208.917 290.38C210.014 291.838 211.674 293.528 212.608 294.135C213.541 294.742 215.409 295.488 216.76 295.792C218.36 296.154 221.154 296.006 224.788 295.368C229.694 294.507 230.791 294.086 233.943 291.859C236.187 290.273 238.097 288.288 239.057 286.544C239.9 285.013 240.538 283.466 240.475 283.107C240.412 282.747 240.137 282.492 239.864 282.54C239.591 282.588 238.604 283.753 237.672 285.128C236.608 286.696 234.668 288.342 232.471 289.541C230.103 290.833 227.367 291.734 224.034 292.319C220.28 292.978 218.405 292.987 216.186 292.356C213.976 291.727 212.774 290.864 211.223 288.794C210.097 287.29 209.108 285.671 209.025 285.195C208.928 284.643 209.8 284.038 211.436 283.524C213.425 282.898 214.371 282.107 215.661 279.993C216.575 278.496 217.627 276.013 217.998 274.476C218.37 272.939 218.57 269.992 218.443 267.928C218.273 265.136 217.778 263.335 216.51 260.892C215.516 258.976 214.079 257.217 213.062 256.671C212.102 256.156 211.01 255.807 210.635 255.894C210.261 255.982 209.401 256.399 208.725 256.82ZM185.009 261.464C184.457 261.694 183.895 262.813 183.762 263.952C183.629 265.091 183.447 267.324 183.36 268.914C183.273 270.505 183.252 272.942 183.313 274.332C183.374 275.721 184.279 281.924 185.324 288.115C186.37 294.307 187.175 299.977 187.114 300.717C187.031 301.732 185.321 299.923 180.101 293.295C176.304 288.474 171.539 282.783 169.512 280.648C167.484 278.512 165.106 275.823 164.225 274.671C163.28 273.435 162.437 272.844 162.168 273.229C161.898 273.613 162.688 275.229 164.095 277.174C165.406 278.986 167.406 281.451 168.54 282.652C169.673 283.853 173.86 289.132 177.844 294.382C181.829 299.632 185.604 304.339 186.233 304.841C186.862 305.343 187.86 305.669 188.45 305.565C189.04 305.462 189.646 304.855 189.796 304.216C189.946 303.576 189.082 296.212 187.876 287.849C186.243 276.526 185.774 271.516 186.037 268.229C186.38 263.957 186.45 263.813 188.187 263.764C189.309 263.733 189.932 263.436 189.851 262.97C189.779 262.561 189.326 262.019 188.844 261.765C188.362 261.511 187.528 261.246 186.99 261.176C186.453 261.105 185.561 261.235 185.009 261.464ZM311.71 240.302C313.158 241.143 314.157 242.433 315.083 244.66C315.806 246.4 316.602 248.781 316.852 249.952C317.118 251.197 316.842 253.603 316.19 255.743C315.576 257.758 313.773 261.26 312.183 263.527C310.593 265.793 308.239 268.441 306.952 269.411C305.49 270.512 303.453 271.377 301.529 271.715C299.834 272.012 297.703 272.063 296.794 271.827C295.884 271.591 294.669 270.658 294.093 269.752C293.512 268.838 292.909 266.599 292.737 264.711C292.546 262.625 292.912 259.682 293.687 257.071C294.38 254.736 296.054 250.665 297.406 248.024C298.759 245.384 300.631 242.551 301.565 241.729C302.649 240.776 304.422 240.03 306.458 239.671C308.947 239.232 310.106 239.372 311.71 240.302ZM213.818 261.031C214.605 262.113 215.495 264.323 215.795 265.941C216.096 267.559 216.066 270.552 215.728 272.592C215.39 274.632 214.501 277.215 213.753 278.332C212.79 279.769 211.787 280.469 210.32 280.727C208.329 281.076 208.244 281.008 208.2 279.031C208.174 277.898 208.06 275.481 207.945 273.66C207.83 271.839 207.97 268.521 208.254 266.287C208.539 264.054 209.112 261.507 209.526 260.627C209.94 259.748 210.754 259.036 211.333 259.045C211.913 259.055 213.031 259.948 213.818 261.031ZM143.064 274.843C142.728 275.322 142.619 276.663 142.823 277.822C143.191 279.921 143.186 279.927 141.496 279.2C140.564 278.799 138.68 278.667 137.311 278.908C135.34 279.253 134.409 279.874 132.84 281.885C131.75 283.283 130.367 285.888 129.767 287.674C129.167 289.461 128.486 293.222 128.255 296.031C128.014 298.958 128.224 304.354 128.747 308.672C129.586 315.599 129.816 316.443 131.606 319.173C132.676 320.805 134.284 322.456 135.178 322.841C136.073 323.225 137.884 323.351 139.204 323.119C140.678 322.861 142.312 322.016 143.44 320.929C144.45 319.956 146.083 317.593 147.07 315.678C148.056 313.763 149.621 309.81 150.546 306.893L152.23 301.59L154.6 304.591C155.903 306.242 157.938 308.21 159.123 308.964C160.698 309.966 161.922 310.222 163.671 309.915C165.284 309.632 166.131 309.155 166.268 308.453C166.38 307.879 166.357 306.81 166.216 306.075C165.98 304.835 165.918 304.827 165.332 305.965C164.985 306.638 164.144 307.287 163.464 307.406C162.783 307.526 161.394 307.177 160.378 306.631C159.361 306.086 157.226 303.811 155.634 301.578C152.761 297.548 152.733 297.466 151.937 290.913C151.414 286.611 150.671 283.239 149.804 281.241C149.072 279.554 147.748 277.166 146.862 275.935C145.976 274.703 144.896 273.758 144.463 273.834C144.029 273.91 143.4 274.364 143.064 274.843ZM147.775 282.414C148.619 284.261 149.478 286.731 149.683 287.903C149.889 289.074 149.811 290.076 149.51 290.129C149.209 290.182 148.591 289.074 148.137 287.666C147.683 286.258 146.86 283.61 146.31 281.782C145.759 279.954 145.518 278.592 145.774 278.757C146.031 278.922 146.931 280.567 147.775 282.414ZM141.523 282.197C142.872 282.633 143.798 283.379 143.931 284.133C144.049 284.808 145.083 287.268 146.228 289.6C147.373 291.932 148.804 294.946 149.408 296.297C150.435 298.597 150.396 299.119 148.797 304.442C147.858 307.569 146.132 311.916 144.962 314.101C143.792 316.286 141.989 318.676 140.956 319.412C139.333 320.567 138.816 320.676 137.148 320.215C136.086 319.922 134.54 318.798 133.712 317.719C132.402 316.014 132.08 314.764 131.248 308.172C130.612 303.135 130.478 299.096 130.849 296.151C131.156 293.712 131.823 290.355 132.332 288.69C132.84 287.026 133.805 284.961 134.476 284.099C135.147 283.239 136.087 282.316 136.565 282.048C137.043 281.781 137.861 281.545 138.382 281.524C138.904 281.504 140.317 281.806 141.523 282.197ZM574.17 209.752C573.713 211.359 573.451 213.31 573.587 214.088C573.763 215.091 574.086 215.351 574.699 214.984C575.447 214.536 575.839 216.013 577.63 226.014C578.767 232.367 580.33 239.743 581.102 242.407C581.875 245.072 583.082 248.869 583.785 250.845C584.487 252.822 585.614 255.917 586.29 257.723C586.966 259.53 588.206 262.693 589.046 264.752C589.887 266.812 591.151 268.881 591.855 269.35C593.072 270.16 593.1 270.114 592.41 268.421C592.009 267.442 590.999 264.326 590.164 261.498C589.329 258.669 588.135 255.013 587.51 253.373C586.884 251.733 585.727 248.643 584.939 246.506C584.149 244.37 581.925 234.618 579.996 224.836C577.539 212.379 576.265 207.017 575.744 206.939C575.335 206.88 574.627 208.145 574.17 209.752ZM516.953 230.457C516.799 230.843 517 231.953 517.399 232.924C517.798 233.896 518.459 234.632 518.867 234.56C519.275 234.489 520.142 235.553 520.794 236.927C521.446 238.3 522.6 241.032 523.359 242.999C524.305 245.45 525.262 250.285 526.403 258.373C527.318 264.862 528.29 273.855 528.563 278.357C528.837 282.859 529.36 288.28 529.726 290.403C530.224 293.296 530.606 294.225 531.251 294.112C531.724 294.029 532.202 293.492 532.314 292.919C532.426 292.345 532.316 290.718 532.07 289.302C531.825 287.887 531.456 283.322 531.252 279.158C531.048 274.994 530.105 266.139 529.156 259.481C527.961 251.094 526.947 245.994 525.858 242.878C524.993 240.405 523.626 237.014 522.822 235.343C522.017 233.671 520.672 231.689 519.832 230.936C518.992 230.184 518.064 229.611 517.769 229.663C517.474 229.714 517.107 230.072 516.953 230.457ZM449.545 255.427C449.358 255.693 449.336 256.655 449.496 257.565C449.656 258.475 450.434 260.08 451.226 261.132C452.501 262.827 453.17 265.769 457.083 286.869C461.162 308.869 461.615 310.823 462.997 312.398C464.094 313.648 464.952 314.023 466.214 313.802C467.616 313.556 469.583 311.164 476.842 300.887C482.399 293.019 486.9 287.324 488.806 285.747C490.898 284.018 492.69 283.074 494.485 282.754L497.108 282.288L497.52 284.636C497.788 286.165 497.486 288.051 496.654 290.038C495.951 291.718 494.008 294.919 492.335 297.152C490.663 299.385 488.423 302.145 487.358 303.285C486.294 304.425 483.772 306.371 481.754 307.611C479.737 308.85 477.008 310.658 475.691 311.63C473.848 312.988 473.358 313.744 473.563 314.91C473.81 316.322 473.978 316.369 476.034 315.596C477.247 315.141 479.521 313.818 481.086 312.656C482.651 311.495 486.269 308.357 489.124 305.684C491.98 303.011 495.933 299.431 497.909 297.728C499.885 296.026 502.774 292.793 504.329 290.543L507.154 286.454L509.105 293.716C510.853 300.224 511.247 301.112 512.893 302.266C514.011 303.051 515.087 303.34 515.644 303.007C516.146 302.705 516.509 302.183 516.45 301.846C516.391 301.509 515.668 300.795 514.844 300.26C513.782 299.57 512.973 298.086 512.061 295.156C511.352 292.884 510.44 289.174 510.031 286.912C509.622 284.65 509.042 282.39 508.742 281.889C508.441 281.388 507.836 281.041 507.396 281.118C506.956 281.196 506.459 282.071 506.291 283.062C506.122 284.054 505.295 286.122 504.451 287.656C503.608 289.192 501.694 291.755 500.197 293.353C498.7 294.952 497.302 296.137 497.089 295.988C496.876 295.84 497.151 294.995 497.7 294.113C498.247 293.231 499.12 291.399 499.638 290.041C500.237 288.475 500.4 286.543 500.086 284.754C499.814 283.204 499.174 281.235 498.664 280.379C497.772 278.88 497.607 278.858 494.217 279.775C492.281 280.299 489.575 281.563 488.205 282.585C486.834 283.606 484.639 285.66 483.325 287.149C482.012 288.638 477.737 294.508 473.826 300.194C469.914 305.88 466.241 310.615 465.663 310.717C465.07 310.821 464.377 310.318 464.075 309.564C463.78 308.828 461.618 298.111 459.271 285.749C456.17 269.42 454.578 262.272 453.453 259.62C452.601 257.612 451.664 255.701 451.372 255.372C451.08 255.044 450.625 254.813 450.362 254.859C450.1 254.905 449.731 255.161 449.545 255.427ZM500.73 261.716C500.63 263.094 500.991 263.667 502.529 264.582C503.587 265.212 504.715 265.68 505.036 265.624C505.356 265.568 505.58 265.3 505.532 265.028C505.484 264.756 505.053 264.259 504.574 263.923C503.897 263.448 503.868 263.284 504.444 263.183C504.852 263.111 505.097 262.552 504.99 261.941C504.883 261.33 504.403 260.555 503.924 260.219C503.445 259.884 502.559 259.695 501.954 259.802C501.277 259.92 500.806 260.657 500.73 261.716ZM545.996 258.357C545.066 259.176 543.576 261.513 542.686 263.549C541.797 265.586 540.802 268.434 540.477 269.877L539.887 272.501L538.155 271.08C537.202 270.299 536.247 269.69 536.032 269.728C535.817 269.766 535.743 270.379 535.868 271.09C535.993 271.802 536.815 273.093 537.693 273.959C539.245 275.489 539.286 275.668 539.07 279.987C538.948 282.435 539.267 286.829 539.78 289.749C540.382 293.179 541.136 295.617 541.91 296.632C542.569 297.497 544.241 298.895 545.626 299.737C547.011 300.58 549.272 301.403 550.649 301.565C552.026 301.728 555.492 301.347 558.355 300.718C563.014 299.696 564.054 299.209 568.301 296.066C570.91 294.135 574.359 291.075 575.967 289.266C577.574 287.457 579.255 284.87 579.702 283.518C580.15 282.166 580.298 280.907 580.031 280.72C579.765 280.533 578.348 281.91 576.883 283.78C575.418 285.649 572.703 288.508 570.85 290.132C568.996 291.757 566.048 293.991 564.299 295.098C562.003 296.551 559.867 297.335 556.624 297.915C554.153 298.357 551.168 298.501 549.989 298.235C548.811 297.969 546.768 296.886 545.45 295.828C543.22 294.038 543.001 293.597 542.283 289.449C541.858 286.998 541.607 283.316 541.724 281.267C541.842 279.218 542.043 277.392 542.171 277.209C542.299 277.026 543.339 277.154 544.481 277.494C545.624 277.833 547.983 278.032 549.726 277.934C551.965 277.809 553.447 277.364 554.786 276.414C555.827 275.676 557.029 274.496 557.457 273.792C557.886 273.088 558.53 271.544 558.89 270.361C559.249 269.177 559.294 266.788 558.989 265.051C558.684 263.314 558.017 261.341 557.506 260.666C556.996 259.992 555.565 258.686 554.327 257.766C552.608 256.489 551.558 256.185 549.883 256.481C548.676 256.694 546.927 257.538 545.996 258.357ZM554.065 260.884C555.637 262.202 556.108 263.142 556.601 265.947C557.169 269.184 557.077 269.563 555.062 272.289C553.033 275.034 552.758 275.197 549.911 275.357C548.257 275.449 545.83 275.192 544.518 274.786L542.132 274.048L543.537 269.38C544.31 266.812 545.667 263.642 546.553 262.336C547.716 260.622 548.715 259.865 550.148 259.614C551.607 259.358 552.645 259.695 554.065 260.884ZM380.627 301.453C379.952 302.617 379.111 305.127 378.758 307.031C378.404 308.936 377.935 312.818 377.715 315.656C377.495 318.495 377.319 321.962 377.324 323.361L377.333 325.905L375.99 323.277C375.252 321.832 373.758 318.942 372.671 316.856C371.583 314.769 370.612 312.076 370.514 310.871C370.416 309.665 370.033 308.589 369.664 308.479C369.295 308.369 368.916 309.386 368.824 310.739C368.697 312.601 369.08 314.082 370.4 316.826C371.36 318.82 373.153 322.948 374.385 325.999C375.617 329.05 377.343 334.474 378.221 338.053C379.491 343.237 380.004 344.526 380.742 344.397C381.497 344.264 381.482 342.74 380.66 336.139C380.106 331.686 379.723 325.883 379.81 323.243C379.897 320.602 380.255 315.815 380.606 312.603C380.958 309.392 381.641 305.764 382.125 304.542C382.627 303.272 383.516 302.229 384.196 302.11C384.962 301.975 386.348 302.946 388.069 304.82C389.616 306.504 392.058 310.397 393.84 314.019C395.539 317.473 397.381 320.993 397.933 321.842C398.484 322.691 399.426 323.8 400.027 324.307C400.627 324.814 401.888 325.094 402.827 324.929C404.059 324.713 405.008 323.829 406.233 321.76C407.166 320.182 408.23 317.202 408.597 315.137C408.964 313.073 409.462 308.785 409.705 305.608L410.145 299.833L412.874 309.31C414.654 315.489 416.182 319.64 417.267 321.24C418.181 322.59 419.771 324.321 420.8 325.09C421.828 325.857 423.461 326.542 424.428 326.612C425.571 326.695 426.685 326.303 427.61 325.493C428.393 324.808 429.085 323.898 429.149 323.472C429.233 322.91 428.583 322.938 426.788 323.575C424.534 324.375 424.121 324.31 422.174 322.844C420.998 321.958 419.388 319.995 418.596 318.482C417.804 316.97 415.969 311.575 414.519 306.493C413.068 301.412 411.648 296.865 411.362 296.389C411.077 295.913 410.618 295.562 410.342 295.611C410.067 295.659 409.435 295.943 408.938 296.24C408.428 296.546 407.834 298.665 407.577 301.093C407.326 303.464 407.118 306.34 407.114 307.484C407.111 308.629 406.604 311.811 405.988 314.556C405.316 317.555 404.335 320.047 403.533 320.801C402.389 321.875 402.062 321.95 401.255 321.326C400.736 320.926 399.668 319.423 398.88 317.986C398.092 316.549 396.885 314.184 396.199 312.73C395.512 311.275 394.342 308.994 393.599 307.66C392.856 306.326 390.863 303.741 389.17 301.915C386.389 298.915 385.888 298.631 383.973 298.967C382.379 299.247 381.55 299.863 380.627 301.453ZM435.521 294.613C434.401 295.576 432.98 297.012 432.363 297.804C431.746 298.597 431.036 299.858 430.785 300.606C430.535 301.353 430.313 303.114 430.293 304.517C430.273 305.921 430.195 308.368 430.12 309.956C430.045 311.545 430.27 314.544 430.62 316.622C431.153 319.796 431.754 321.066 434.371 324.554C436.597 327.523 438.283 329.075 440.281 329.993C442.446 330.988 444.069 331.189 447.478 330.88C451.478 330.519 452.085 330.296 454.133 328.437C455.372 327.313 456.91 325.359 457.55 324.097C458.19 322.833 459.036 320.741 459.431 319.447C459.927 317.818 459.899 315.569 459.338 312.145C458.64 307.889 458.208 306.776 456.243 304.191C454.986 302.538 452.794 300.226 451.37 299.053C449.946 297.88 447.317 296.224 445.528 295.372C443.738 294.52 441.628 293.937 440.839 294.075C439.976 294.227 439.34 293.958 439.242 293.401C439.153 292.892 438.737 292.562 438.318 292.668C437.9 292.775 436.641 293.65 435.521 294.613ZM444.638 298.403C446.333 299.102 448.77 300.609 450.055 301.752C451.339 302.894 453.45 305.285 454.747 307.065C457 310.156 457.106 310.483 457.122 314.41C457.133 317.068 456.673 319.484 455.819 321.254C455.094 322.758 453.706 324.766 452.733 325.717C451.238 327.181 450.344 327.515 446.904 327.896C443.295 328.295 442.547 328.15 440.224 326.607C438.785 325.651 436.69 323.519 435.569 321.867C434.256 319.934 433.328 317.711 432.961 315.619C432.647 313.832 432.527 310.692 432.694 308.641C432.86 306.59 433.653 303.383 434.456 301.517C435.851 298.268 436.036 298.1 438.735 297.626C440.776 297.268 442.409 297.483 444.638 298.403ZM225.801 330.893C225.746 331.69 226.336 334.235 227.111 336.549C227.888 338.863 229.275 343.201 230.195 346.189C231.473 350.343 231.881 352.745 231.926 356.385C231.959 359.004 231.634 362.422 231.204 363.982C230.774 365.541 229.328 368.183 227.991 369.852C225.789 372.602 225.328 372.892 223.108 372.926C221.759 372.946 219.773 372.687 218.693 372.349C217.614 372.011 215.691 370.726 214.421 369.493C213.15 368.261 210.445 364.952 208.408 362.14C206.371 359.328 204.136 355.91 203.44 354.545C202.744 353.18 201.956 352.101 201.688 352.148C201.421 352.195 201.111 352.7 201 353.271C200.889 353.841 201.371 355.403 202.072 356.741C202.774 358.08 205.332 361.856 207.757 365.132C210.476 368.804 213.342 371.904 215.228 373.213C216.912 374.382 219.322 375.438 220.583 375.561C221.844 375.684 223.737 375.635 224.79 375.452C225.928 375.254 227.582 374.214 228.87 372.887C230.061 371.659 231.485 369.712 232.034 368.56C232.583 367.408 233.359 365.175 233.756 363.599C234.203 361.828 234.65 361.064 234.928 361.598C235.175 362.073 236.437 366.713 237.734 371.911C239.03 377.108 241.045 386.811 242.212 393.473C243.841 402.77 244.336 407.269 244.342 412.826C244.346 416.808 244.139 422.22 243.881 424.853C243.623 427.485 242.869 431.483 242.206 433.737C241.543 435.991 240.525 438.563 239.944 439.452C239.363 440.342 238.534 441.132 238.101 441.208C237.667 441.284 236.442 440.541 235.376 439.557C234.31 438.574 232.651 436.344 231.687 434.602C230.724 432.861 228.987 428.671 227.826 425.293C226.657 421.889 225.078 415.513 224.286 410.995C223.106 404.264 222.948 401.794 223.384 396.854C223.674 393.563 224.248 390.089 224.659 389.134C225.069 388.179 225.19 387.247 224.927 387.063C224.664 386.878 224.106 387.216 223.686 387.814C223.267 388.411 222.377 391.844 221.707 395.442L220.489 401.982L222.252 411.855C223.34 417.952 224.859 424.197 226.225 428.191C227.609 432.239 229.371 436.024 230.94 438.32C232.318 440.335 234.271 442.565 235.282 443.273C236.293 443.982 237.797 444.443 238.625 444.297C239.454 444.152 240.824 443.113 241.672 441.988C242.518 440.864 243.756 438.142 244.422 435.938C245.087 433.734 245.889 429.891 246.204 427.398C246.518 424.904 246.809 419.036 246.85 414.356C246.914 407.203 246.594 403.961 244.844 394.005C243.7 387.493 241.802 378.323 240.628 373.63C239.455 368.936 237.024 360.056 235.228 353.896C233.431 347.737 231.055 339.896 229.948 336.473C228.84 333.05 227.733 330.022 227.486 329.746C227.241 329.47 226.783 329.289 226.47 329.344C226.157 329.399 225.856 330.096 225.801 330.893ZM311.915 317.353C311.28 317.639 310.182 318.415 309.476 319.077C308.77 319.74 307.839 321.435 307.406 322.843C306.822 324.745 306.842 326.671 307.484 330.329C307.96 333.038 309.085 336.986 309.984 339.103C310.883 341.22 311.861 343.355 312.156 343.848C312.63 344.638 312.483 344.679 310.935 344.192C309.967 343.888 308.506 343.892 307.688 344.203C306.87 344.513 306.242 345 306.292 345.284C306.342 345.569 307.317 345.824 308.459 345.85C309.969 345.885 311.654 346.826 314.632 349.294C316.885 351.162 319.202 353.302 319.783 354.051C320.363 354.8 321.245 355.341 321.744 355.254C322.242 355.166 322.551 354.534 322.431 353.848C322.311 353.163 320.364 350.14 318.104 347.131C315.844 344.122 313.232 339.843 312.298 337.623C311.365 335.402 310.31 331.922 309.953 329.889C309.576 327.742 309.571 325.339 309.942 324.154C310.297 323.019 311.445 321.56 312.527 320.868C313.621 320.168 316.496 319.267 319.092 318.811C321.633 318.365 325.401 318.162 327.465 318.359C329.53 318.557 332.741 318.827 334.601 318.958C337.511 319.164 337.962 319.073 337.827 318.305C337.741 317.815 336.25 317.065 334.512 316.64C332.775 316.216 329.596 315.64 327.447 315.363C324.797 315.02 321.857 315.176 318.305 315.846C315.426 316.389 312.55 317.068 311.915 317.353ZM145.609 358.97C144.993 360.216 144.267 362.562 143.997 364.185C143.728 365.807 143.267 369.754 142.975 372.955C142.682 376.156 142.407 380.428 142.363 382.448C142.32 384.469 142.23 387.706 142.164 389.642C142.098 391.579 141.836 393.2 141.583 393.244C141.329 393.289 140.355 391.813 139.418 389.965C138.481 388.117 137.434 386.383 137.091 386.11C136.748 385.838 136.38 385.111 136.271 384.495C136.163 383.88 135.736 382.938 135.323 382.403C134.909 381.868 133.296 379.205 131.739 376.486C130.181 373.767 128.775 370.792 128.614 369.876C128.453 368.959 128.044 368.258 127.704 368.318C127.365 368.377 127.255 369.385 127.461 370.558C127.667 371.73 130.385 377.425 133.502 383.213C136.619 389.001 139.736 394.481 140.429 395.39C141.122 396.299 142.046 396.981 142.484 396.904C142.922 396.827 143.562 395.752 143.906 394.515C144.25 393.278 144.488 390.873 144.436 389.172C144.383 387.471 144.67 381.725 145.074 376.405C145.477 371.084 146.074 365.538 146.4 364.081C146.725 362.624 147.224 361.016 147.509 360.508C147.906 359.798 148.411 360.228 149.681 362.353C150.591 363.877 152.23 367.114 153.322 369.548C154.415 371.981 155.953 375.576 156.741 377.538C157.528 379.5 159.32 383.052 160.724 385.431C162.128 387.811 164.118 390.397 165.147 391.178C166.176 391.958 167.284 392.55 167.609 392.493C167.935 392.436 168.129 391.973 168.039 391.463C167.95 390.954 167.667 390.571 167.412 390.612C167.157 390.652 166.291 389.731 165.488 388.563C164.685 387.395 163.386 385.408 162.602 384.145C161.818 382.883 160.733 380.783 160.191 379.478C159.649 378.173 158.204 374.704 156.98 371.769C155.756 368.834 153.654 364.478 152.308 362.09C150.962 359.701 149.367 357.476 148.763 357.144C148.16 356.813 147.455 356.578 147.198 356.623C146.941 356.668 146.225 357.724 145.609 358.97ZM273.801 341.449L274.909 347.758L272.61 345.528C271.345 344.302 268.641 342.568 266.601 341.675C264.561 340.783 261.494 339.886 259.785 339.683C258.077 339.479 254.849 339.64 252.613 340.041C249.903 340.526 247.719 341.334 246.07 342.462C244.707 343.393 243.207 344.223 242.734 344.306C242.262 344.389 241.918 344.696 241.969 344.989C242.021 345.282 241.438 346.671 240.675 348.076C239.849 349.596 239.316 351.789 239.358 353.493C239.398 355.068 239.704 356.882 240.039 357.524C240.374 358.165 240.824 358.534 241.038 358.343C241.253 358.151 241.338 357.074 241.228 355.947C241.118 354.821 241.135 353.746 241.266 353.559C241.397 353.372 241.803 354.916 242.167 356.99C242.615 359.541 243.603 362.087 245.22 364.855C246.749 367.472 248.773 369.859 250.831 371.472C252.602 372.859 255.174 374.23 256.545 374.518C257.918 374.806 260.647 374.962 262.611 374.865C265.652 374.714 266.629 374.379 269.202 372.601C270.863 371.453 273.005 369.575 273.961 368.428C274.918 367.28 276.266 364.779 276.956 362.869C277.647 360.958 278.106 358.698 277.976 357.846C277.801 356.707 278.416 357.272 280.298 359.983C281.706 362.01 283.746 364.327 284.832 365.13C285.918 365.934 287.6 366.844 288.572 367.153C289.543 367.462 292.182 367.582 294.434 367.42C298.01 367.164 298.819 366.889 300.81 365.26C302.064 364.234 303.634 362.216 304.298 360.775C305.293 358.619 305.403 357.229 304.921 352.922C304.341 347.734 304.306 347.65 300.91 343.215C299.026 340.755 295.801 337.41 293.744 335.784C290.811 333.465 289.614 332.895 288.201 333.143C286.81 333.387 286.448 333.741 286.615 334.694C286.734 335.373 287.221 335.86 287.696 335.777C288.171 335.693 290.23 336.912 292.271 338.485C294.312 340.057 297.318 343.038 298.952 345.107C301.762 348.667 301.951 349.12 302.459 353.5C302.98 357.982 302.929 358.222 300.88 360.936C298.952 363.493 298.458 363.796 295.325 364.346C293.433 364.678 290.925 364.726 289.75 364.452C288.576 364.178 286.921 363.395 286.073 362.711C285.224 362.027 283.813 360.592 282.938 359.521C282.061 358.449 280.688 355.97 279.885 354.011C279.082 352.052 278.037 349.687 277.561 348.756C277.085 347.825 276.337 345.021 275.899 342.526C275.406 339.715 275.354 337.943 275.763 337.872C276.126 337.808 276.225 337.147 275.982 336.401C275.698 335.531 275.032 335.064 274.117 335.093C272.721 335.139 272.715 335.259 273.801 341.449ZM600.79 292.881C600.701 294.734 600.581 296.746 600.524 297.35C600.468 297.955 599.786 299.426 599.008 300.62C597.687 302.646 597.519 302.73 596.481 301.891C595.868 301.397 594.85 300.009 594.218 298.808C593.586 297.606 592.812 296.668 592.499 296.723C592.186 296.778 592.127 297.948 592.368 299.323C592.61 300.698 593.372 302.564 594.061 303.47C594.751 304.375 596.27 305.415 597.436 305.78C598.883 306.233 600.432 306.187 602.31 305.634C604.299 305.049 605.376 304.3 606.186 302.938C607.081 301.433 607.178 300.314 606.666 297.395C606.313 295.384 605.381 292.7 604.595 291.431C603.671 289.939 602.776 289.192 602.06 289.318C601.231 289.463 600.913 290.354 600.79 292.881ZM261.814 343.144C263.722 343.656 266.78 345.036 268.61 346.212C270.441 347.388 272.697 349.357 273.625 350.588C274.908 352.292 275.351 353.542 275.478 355.816C275.57 357.46 275.286 359.961 274.847 361.375C274.408 362.788 273.386 364.803 272.576 365.852C271.765 366.901 270.202 368.535 269.103 369.484C267.619 370.764 266.097 371.386 263.204 371.894C260.535 372.362 258.41 372.323 256.468 371.772C254.908 371.328 252.687 370.094 251.534 369.029C250.381 367.964 248.527 365.655 247.416 363.898C245.841 361.409 245.18 359.5 244.424 355.263C243.891 352.271 243.647 349.235 243.883 348.517C244.12 347.798 244.595 347.161 244.939 347.101C245.283 347.04 246.297 348.074 247.192 349.397C248.499 351.33 248.865 351.571 249.05 350.622C249.177 349.971 248.846 348.805 248.313 348.029C247.781 347.253 247.298 346.345 247.239 346.01C247.18 345.676 247.713 345.041 248.423 344.6C249.134 344.159 251.656 343.442 254.03 343.006C257.35 342.397 259.145 342.429 261.814 343.144ZM102.549 371.987C101.629 372.811 100.27 374.529 99.5304 375.805C98.7897 377.081 97.8277 379.285 97.392 380.704C96.9563 382.122 96.4947 385.101 96.3666 387.322C96.2378 389.542 96.5983 394.035 97.1672 397.305C97.8719 401.355 98.6485 403.956 99.6062 405.467C100.379 406.687 101.724 408.231 102.595 408.899C103.466 409.567 104.997 410.371 105.998 410.688C106.999 411.004 109.506 410.966 111.569 410.604C114.536 410.083 116.043 409.407 118.768 407.372C120.664 405.957 123.39 403.065 124.827 400.946C126.263 398.826 128.009 395.324 128.705 393.164C129.505 390.683 129.883 387.799 129.73 385.332C129.521 381.959 129.22 381.064 127.531 378.775C126.455 377.317 124.215 375.14 122.554 373.938C120.892 372.735 118.064 371.304 116.269 370.759C114.226 370.138 111.361 369.902 108.614 370.128C104.933 370.431 103.952 370.732 102.549 371.987ZM603.758 301.471C603.226 302.043 602.258 302.615 601.607 302.74C600.467 302.96 600.462 302.907 601.462 301.354C602.034 300.466 602.656 298.424 602.845 296.816L603.187 293.892L603.956 297.161C604.562 299.743 604.521 300.649 603.758 301.471ZM114.947 373.585C116.059 373.933 117.859 374.661 118.95 375.203C120.04 375.745 122.104 377.309 123.537 378.68C125.789 380.833 126.227 381.653 126.766 384.724C127.195 387.166 127.11 389.234 126.495 391.332C126.002 393.012 124.436 396.194 123.016 398.405C121.507 400.752 119.069 403.445 117.153 404.88C114.579 406.807 113.158 407.434 110.552 407.794C108.725 408.046 106.463 407.92 105.519 407.514C104.576 407.108 103.075 405.71 102.183 404.407C100.995 402.669 100.318 400.635 99.6492 396.788C99.1468 393.901 98.8339 389.94 98.9536 387.986C99.0732 386.032 99.4899 383.382 99.8802 382.096C100.27 380.811 101.052 379.034 101.616 378.147C102.181 377.26 103.268 376.426 104.033 376.291C104.877 376.143 106.29 376.788 107.626 377.93C109.411 379.458 109.867 379.611 110.036 378.74C110.151 378.149 109.69 376.936 109.011 376.045C108.333 375.154 107.237 374.204 106.577 373.934C105.665 373.561 106.282 373.385 109.152 373.198C111.227 373.063 113.835 373.237 114.947 373.585ZM103.111 379.913C103.329 380.459 103.781 380.842 104.117 380.765C104.454 380.687 104.672 380.299 104.602 379.903C104.533 379.507 104.081 379.124 103.597 379.052C103.047 378.97 102.866 379.293 103.111 379.913Z" fill="black"/>
<path fill-rule="evenodd" clip-rule="evenodd" d="M50.9835 72.9026C51.3779 73.1939 51.775 73.6538 51.8659 73.9248C52.0548 74.4884 51.1182 77.6322 50.7216 77.7652C50.577 77.8137 50.0905 78.3265 49.6408 78.9046L48.8229 79.9559L50.7442 86.9391C51.8011 90.7797 53.0498 95.0578 53.5186 96.4457L54.3712 98.9688L61.3663 96.8327C80.2883 91.0546 96.5879 87.3878 121.872 83.2216C124.672 82.7603 129.39 81.9481 132.357 81.4163C142.206 79.6518 164.47 76.965 174.494 76.3313C192.913 75.1669 205.95 75.8355 226.332 78.9893C251.88 82.9429 268.305 88.9171 285.158 100.387C294.453 106.712 304.207 118.668 308.12 128.532C309.92 133.071 313.144 145.428 313.815 150.363C315.165 160.29 315.44 175.167 314.446 184.462C313.756 190.909 312.151 201.268 311.503 203.455C311.115 204.763 310.722 206.31 310.63 206.894C310.397 208.374 309.044 210.187 307.883 210.576C306.712 210.969 304.198 209.831 304.081 208.855C304.004 208.222 304.312 208.059 305.79 207.954C306.504 207.903 306.696 207.669 307.018 206.457C307.228 205.667 307.449 204.926 307.509 204.81C308.294 203.301 310.555 185.437 310.891 178.098C311.233 170.607 310.821 159.936 309.908 152.645C309.294 147.74 307.002 138.178 305.029 132.296C302.449 124.601 296.685 116.171 288.955 108.791C280.419 100.641 262.209 91.296 247.363 87.4476C236.507 84.6335 225.209 82.6723 209.644 80.9003C197.447 79.5117 182.902 79.5221 167.372 80.9302C159.059 81.684 138.357 84.4101 130.86 85.7381C126.722 86.471 120.531 87.5431 117.103 88.12C94.6523 91.8987 75.9673 96.305 60.9467 101.362L55.7011 103.129L56.9243 106.098C57.597 107.731 58.7419 110.404 59.4686 112.039C62.3678 118.562 63.1547 122.117 61.7992 122.572C60.7047 122.939 59.9131 121.896 57.9865 117.546C56.9341 115.171 56.0532 113.195 56.029 113.156C56.0047 113.117 54.9102 113.444 53.5971 113.885C51.3685 114.632 50.966 114.653 47.5515 114.201C40.7209 113.298 33.8544 112.526 33.7905 112.655C33.7553 112.726 34.8643 113.564 36.255 114.518C37.6457 115.472 39.4362 116.795 40.2337 117.459C41.5378 118.544 41.6799 118.775 41.6431 119.756C41.6066 120.735 41.6929 120.877 42.4825 121.142C43.6005 121.517 52.0224 123.424 52.2398 123.351C52.3289 123.321 52.3697 122.879 52.3302 122.369C52.2439 121.259 52.5248 120.424 52.9505 120.523C53.1202 120.563 53.7451 121.296 54.339 122.153C55.5024 123.83 56.99 124.786 58.8792 125.072C60.4165 125.304 62.4895 126.895 62.5049 127.855C62.5409 130.072 60.6276 130.864 57.9221 129.753C55.9002 128.922 55.1126 128.709 45.229 126.325C36.1128 124.125 32.103 122.998 23.1669 120.122C11.6275 116.409 8.79114 114.851 8.23649 111.924C7.5584 108.346 8.5797 106.124 12.5707 102.497C15.4641 99.8666 20.7562 95.8433 23.2061 94.4115C24.3194 93.7606 26.6865 92.2153 28.4663 90.9773C30.2457 89.7395 32.2318 88.446 32.8791 88.1024C33.5265 87.7592 34.8109 86.9383 35.7333 86.2783C36.6558 85.6186 38.4259 84.386 39.6671 83.5397C40.9083 82.6935 42.3251 81.5773 42.8157 81.0589C43.3064 80.5409 43.8579 80.0666 44.0414 80.0051C44.5124 79.8471 47.8465 75.5587 48.7363 73.9663C49.6186 72.3874 50.0257 72.1948 50.9835 72.9026ZM44.6266 84.377C44.1195 84.8545 42.6881 85.9344 41.4455 86.7766C40.2031 87.6191 38.7463 88.6153 38.2085 88.9907L37.2307 89.6735L38.6016 90.1631C39.3557 90.4325 41.8823 91.3487 44.2169 92.1994C46.9249 93.1861 48.4013 93.5676 48.2958 93.2529C48.0138 92.4121 45.5436 90.6067 44.738 90.6529C44.2657 90.6799 43.8922 90.4558 43.7618 90.067C43.5734 89.505 43.707 89.4033 45.002 89.1258C45.9848 88.9148 46.7145 88.9803 47.2613 89.3283C48.0631 89.8385 48.0643 89.8204 47.4349 86.7338C47.0861 85.0247 46.729 83.4118 46.6414 83.1505C46.4738 82.6507 46.4355 82.674 44.6266 84.377ZM28.522 95.5965C28.4255 95.7758 29.4249 96.0462 30.7433 96.1975C32.0614 96.3485 35.9211 97.1408 39.3202 97.9582C47.4513 99.9131 47.3266 99.8884 47.4844 99.5714C47.7097 99.1187 44.5536 97.3631 40.6827 95.7879C38.6823 94.9735 36.6179 94.0787 36.0946 93.7988C35.5718 93.519 34.6065 93.117 33.9498 92.905L32.7556 92.5197L30.7266 93.8952C29.6106 94.6517 28.6185 95.4172 28.522 95.5965ZM19.9004 101.295C15.5456 104.656 12.6721 107.371 12.1145 108.651C11.9214 109.094 11.8478 109.955 11.951 110.563C12.1282 111.609 12.3097 111.741 15.2832 112.964C18.1109 114.128 33.611 119.084 35.3385 119.377C36.1994 119.523 36.0754 119.41 32.9149 117.18C28.3034 113.926 27.0385 112.741 26.241 110.926C25.6549 109.591 25.5707 109.081 25.8468 108.527C26.3435 107.528 28.3441 106.919 29.3216 107.468C29.7465 107.707 30.2196 107.86 30.3726 107.809C30.5256 107.757 31.6032 107.954 32.7671 108.246C33.9309 108.537 36.9301 109.016 39.4319 109.309C41.9336 109.602 45.1117 110.01 46.4938 110.216C47.8763 110.422 49.0441 110.516 49.0893 110.426C49.1638 110.275 47.2149 109.476 36.14 105.114C31.2644 103.194 25.2464 99.9447 24.6546 98.9134C24.3976 98.4655 24.1291 98.1185 24.0578 98.1424C23.9864 98.1664 22.1157 99.5848 19.9004 101.295ZM38.5565 101.869C41.0752 102.942 45.9657 104.836 46.2239 104.838C46.3705 104.839 46.6815 104.57 46.9154 104.24C47.3031 103.692 47.1318 103.589 44.9641 103.069C43.6572 102.756 41.472 102.215 40.1078 101.866C37.231 101.13 36.8252 101.131 38.5565 101.869ZM51.706 105.491C51.7484 105.618 52.1487 105.881 52.5953 106.076C53.3868 106.422 53.4009 106.411 53.1476 105.656C53.0046 105.229 52.7757 104.825 52.6389 104.757C52.3305 104.603 51.6009 105.178 51.706 105.491Z" fill="black"/>
</svg>
