<svg xmlns="http://www.w3.org/2000/svg" viewBox="0 0 520.26 523"><defs><style>.cls-1{fill:#aa151b;}.cls-2{fill:#f1bf00;}</style></defs><g id="Layer_2" data-name="Layer 2"><g id="Layer_1-2" data-name="Layer 1"><path d="M360,214.13c0-.2-.19-.58.39-.58a2.86,2.86,0,0,1,1.74.77,2.69,2.69,0,0,0,.77.58c.2,0,.2.19.39.19s.19.2.39.2l.38-.39a7.3,7.3,0,0,1,1.75,2.52l1.74,2.32a19.83,19.83,0,0,1,1.35,2.9c.2-.19.2-.19.39,0s.19.39.19.78a8.11,8.11,0,0,1,.2,1c0,.58.19,1.36.19,2.13,0,.2.19.39.19.58.2.2.2.2.39.2v1.93c.39,2.52.58,5.42.77,8.32v6.58a1.78,1.78,0,0,1-.19,1c0,.58-.19,1.36-.19,1.94a1.67,1.67,0,0,1-.2,1v.78a23,23,0,0,1,2.71,1.93l.39.39.19.19c.2.2.2.39.39.59a10.26,10.26,0,0,1,1,2.9,11.78,11.78,0,0,1,0,5.22,23.67,23.67,0,0,1-1.94,3.87c-.77,1.17-1.93,2.33-2.71,3.29.39.2.39.58.2,1.17,0,.38-.2.58-.39,1a4.11,4.11,0,0,1-.58,1c-.77,1.36-1.55,2.71-.58,2.9-1.55,1.16-4.26,2.52-4.26,2.91a2.51,2.51,0,0,1-.19,1.16,4.8,4.8,0,0,1-.78,1.35,4,4,0,0,1-1.93,1.55,9.94,9.94,0,0,1-3.49,1.55c-.58.19-1.16.19-1.93.39H352c-.19.19-.19.19,0,.38s.59.2,1,.39c.78.19,1.55.39,1,.58h1.55a5.44,5.44,0,0,0,1.74-.19,21,21,0,0,0,3.29-.58c1.16-.2,2.13-.58,3.29-.78,1-.38,2.13-.77,3.1-1.16s1.93-1,3.09-1.55l1.36-1c.38-.39,1-.59,1.35-1a56.29,56.29,0,0,0,5-4.45,29,29,0,0,0,3.87-5.62,32.41,32.41,0,0,0,2.71-6.58,20,20,0,0,0,.58-7.74,8.48,8.48,0,0,0-.19-1c0-.39-.19-.78-.19-1.17-.2-.77-.39-1.35-.58-2.12-.2-.39-.2-.78-.39-1.17l-.58-1.16a4.24,4.24,0,0,0-.58-1l-.19-.2v-.19h-.39v-.58c0-.78.19-1.74.19-2.71s.2-1.94.2-3.1c.19-2.13.19-4.45.19-7a35.66,35.66,0,0,0-.78-7.74,28.43,28.43,0,0,0-2.32-7.93c-.19-.39-.19-.58-.38-1s-.39-.58-.39-1a7.6,7.6,0,0,1-1-1.74,20.92,20.92,0,0,0-2.52-3.29,29,29,0,0,0-5.41-4.64,18.61,18.61,0,0,0-4.65-2.13,1.7,1.7,0,0,0-1-.2,23.76,23.76,0,0,0-8.9-1.16,29.69,29.69,0,0,0-7.74,1.16,47.09,47.09,0,0,0-5.61,2.33,10.33,10.33,0,0,1,2.51.19,18.11,18.11,0,0,0-4.45,1.35c-1.93,1-2.13,1.36-1.74,1.75s1.35.38,2.32.77c1.16.19,0,1.16,1.74,1.16a16.42,16.42,0,0,1-2.9.78c0,.19,1-.2,1.74-.39s1.55-.39,1.16,0a23.67,23.67,0,0,0-3.48,1.16,3.79,3.79,0,0,0,2.32-.39c1-.19,1.74-.38,1.74-.19a18.76,18.76,0,0,1-1.93.39c-.77.19-1.55.38-1.55.77,0,.19,1.16-.19,1.74-.39a11,11,0,0,0-3.48,1.75c-.39.38,0,.58,1.74.58-.58.19-1.16.38-1.93.58-.39,0-.58.19-1,.38s-.58.2-.78.39h0a3.1,3.1,0,0,0,1-.39c.39-.19.78-.19,1-.38a7.84,7.84,0,0,0-1.94.77c.2,0,.2.19.39.19.39-.19,1-.19,1.55-.38a2.78,2.78,0,0,1-1.16.38c.39,0,.77.2,1.35.2,1.55-.2,3.29,0,4.07-.2a63.44,63.44,0,0,1,9.87-1.74A23.42,23.42,0,0,1,360,214.13Z"/><path d="M213.66,239.67c0-.19-.77-.19,0-.77a7,7,0,0,1,1.74-.78c.58-.19,1.36-.19,1.94-.38.38,0,.58-.2,1-.2s.58-.19,1-.19a7.16,7.16,0,0,0,1.94-.58c0-.19,0-.39.19-.39,1.16-.19,2.32-.19,3.48-.38l7-.58c.39,0,1-.2,1.36-.2.38-1.16.77-2.13,1.16-3.29l.58-1.74a12,12,0,0,1,.58-1.55,9.53,9.53,0,0,0,.58-1.35,11.19,11.19,0,0,1,.77-1.36,45.83,45.83,0,0,1,3.29-5c-.19,0-.38,0-.19-.39a53.53,53.53,0,0,1,4.84-5.22c.19-.39.58-.58.77-1a.36.36,0,0,0,0-.58c1-.77,1.74-1.55,2.52-2.13A94.57,94.57,0,0,1,264.17,199c6-3.48,12.58-6.58,19.93-7.93a38.45,38.45,0,0,1,4.65-1,38,38,0,0,1,4.64-.19,31.71,31.71,0,0,1,7.17,1.54,28.54,28.54,0,0,1,6.38,3.29c0-.38.78-.38,1.55-.19a13.63,13.63,0,0,0,1.55.58c.58.19,1.16.58,1.74.77a4.44,4.44,0,0,1,1.55,1c.58.2,1,.58,1.35.58.78.39,1.16.39,1-.38.19.38.58.58.77,1a4.37,4.37,0,0,0,.78,1,4.1,4.1,0,0,0,.77,1,4.33,4.33,0,0,0,.78,1,4.64,4.64,0,0,1,1.16,1.74c.39.39.58.58.77.58a5,5,0,0,1,3.1,1.55,23.81,23.81,0,0,1,5,7.74c.39.77.58,1.74,1,2.71.19,1,.58,1.93.77,2.9a37,37,0,0,0,1,3.87c.19.39.39.39.39,0v-1.35c0-1.16-.2-2.33.38-1.36a72.39,72.39,0,0,0-7.16-18.19,50.45,50.45,0,0,0-6.19-8.13,37.14,37.14,0,0,0-17.8-10.64A38.33,38.33,0,0,0,290.88,181a56.41,56.41,0,0,0-19.74,3.29c-1.55.58-4.84,1.94-8.9,3.87a108.68,108.68,0,0,0-14.13,8.52,113.83,113.83,0,0,0-14.71,13,78.44,78.44,0,0,0-6.19,7.93,32,32,0,0,0-2.52,4.45l-.19.58-.2.2h0V223a.19.19,0,0,1-.19.19H223a.7.7,0,0,0-.58.2,11.56,11.56,0,0,1-2.52.38c-.38,0-.77.2-1.16.2s-.77.19-1.16.19c-.77.19-1.55.39-2.13.58a8.75,8.75,0,0,0-1,.19c-.38.2-.58.2-1,.39l-1.75.58c-.19,0-.19,0-.38.2-.2,0-.2.19-.39.19a1.17,1.17,0,0,1-.77.19c-.39.2-1,.39-1.36.58-1,.39-2.13,1-3.1,1.36-1,.58-2.12,1.16-3.09,1.74-.2.19-.58.39-.78.58l-.77.58-1.55,1.16a8.59,8.59,0,0,0-1.35,1.16l-.78.58-.58.58a30.35,30.35,0,0,0-7,11.81,32,32,0,0,0-1,10.45c.19-.77.38-1.55.58-2.13a5.66,5.66,0,0,1,.77-1.93l-.19.58v.58c0,.38-.2.77-.2,1.16a9.57,9.57,0,0,0-.19,2.32v1.94a2.9,2.9,0,0,0,.19,1.35c.2,1.74.39,2.9.78,3.29.19.58.39.58.58.39a4.76,4.76,0,0,0,.58-1.36c.19-.58.39-1.35.58-1.93.19-1,.58-.78.77-.78s.2,0,.39-.19c0-.19.2-.19.2-.39s.19-.38.19-.77a44.52,44.52,0,0,0,.19,5c.2,0,.2-.39,0-.77a6.73,6.73,0,0,0-.19-1.94c0-1.35,0-2.71.39-1.93a31.08,31.08,0,0,0,.38,6,10.74,10.74,0,0,0,0-3.68V259.8c0-.58.2-.77.39-.77v1.35c0,.58-.19,1.16-.19,1.94,0,1.35,0,2.51.38,2.71.2,0,0-1.94,0-2.91a18.11,18.11,0,0,0,1.36,6c.19.39.39.39.58,0a7.45,7.45,0,0,0,.19-2.51c.2,1,.2,1.93.39,3.09a3.57,3.57,0,0,0,.39,1.55c0,.19.19.58.19.78s0,.19.19.38a.2.2,0,0,0,.2.2h0c0-.2-.2-.39-.2-.78a8.29,8.29,0,0,1-.19-1c-.19-.58-.19-1.16-.39-1.74a18.52,18.52,0,0,0,.78,3.1.72.72,0,0,1,.19-.58c-.19-.78-.19-1.55-.39-2.32a7.91,7.91,0,0,1,.39,2.12c0-.58.19-1.16.19-1.93a45.43,45.43,0,0,1,.39-6.19A25.09,25.09,0,0,1,203,248a19.61,19.61,0,0,1,4.64-5.22A33.92,33.92,0,0,1,213.66,239.67Z"/><path d="M169.73,291.73c.19,0,.58-.38.58.39,0,1.94-1,3.29-.78,5.42.2,0,.2,0,.39.19a38.41,38.41,0,0,0-.39,4.84,20.33,20.33,0,0,0,1.17,4.65,31.93,31.93,0,0,0,1.93,4.45c.19-.2.19-.2.39,0a34.22,34.22,0,0,0,2.9,4.45l.58.58a.28.28,0,0,0,.39,0,12.76,12.76,0,0,1,1.55,1.74,27.14,27.14,0,0,0,6.19,3.29,26.11,26.11,0,0,0,6.39,1.55,35,35,0,0,0,6.38.39h4.07c.38,0,.58-.2,1-.2.2,0,.59-.19.78-.19l.39-.2H204a11.7,11.7,0,0,1,.78,1.55c0,.2.19.39.19.58v.2h0v.19c0,.19.19.39.19.58a5.52,5.52,0,0,0,1.55,2.13,8.76,8.76,0,0,0,2.13,1.55,10.7,10.7,0,0,0,2.32.77c0-.38.39-.58,1-1,.19-.2.58-.2,1-.39s.58-.39,1-.39a2.69,2.69,0,0,0,.77-.58l.58-.58c.39-.39.39-.77,0-1,.39,0,.78-.19,1.16-.19.39-.19.78-.19,1.16-.39.78-.19,1.16-.58,1.16-.77a4,4,0,0,1,.59-2.32,10.29,10.29,0,0,1,2.9-3.1,23.84,23.84,0,0,1,2.32-1.16c.77-.39,1.55-.58,1.74-1,.58-.77-2.13.19-1.55-.58-1.93,1-3.87,1.93-5.8,2.71l-.78.39-.77.19a3.69,3.69,0,0,1-1.35.39,14.07,14.07,0,0,1-2.33.58h-.77v-.2l-.19-.77c-.39-1.16-.59-2.32-1-3.48-.2-1.17-.58-2.33-.78-3.49H200.5a5.44,5.44,0,0,1-1.74-.19,20.11,20.11,0,0,1-5.81-.78,32.18,32.18,0,0,1-4.06-1.35,11.44,11.44,0,0,1-3.49-2.52,9.79,9.79,0,0,1-1.35-1.54,6.09,6.09,0,0,1-1-1.94,15.23,15.23,0,0,1-1.16-4.26,29,29,0,0,1,0-7.16v-.58c.39-3.48,1.55-7.55,1.94-10.84.19-1.55.19-2.9.38-4.45-.38.58-1,1-1.35,1.55a12,12,0,0,0,1.16-3.48c.39-1.55.19-2.13-.19-2.13a8.52,8.52,0,0,0-1.94,1c-.77.77-1-.78-1.94.38a8.71,8.71,0,0,1,1.17-2.32c-.2-.19-.39.58-.78,1.35-.19.78-.58,1.36-.77.78a20.55,20.55,0,0,0,1.16-3.1c-.78,0-1.74,3.29-2.13,2.91,0-.59,1.94-2.52,1.35-2.91-.19-.19-.58,1-.77,1.36.58-1.55,1-2.91.77-3.49,0-.58-.58-.38-1.54.78a6.88,6.88,0,0,1,1-1.55c.2-.19.39-.58.58-.77.2-.39.39-.59.39-.78h0c-.39.58-1,1.36-1.16,1.74.39-.58.58-1.16,1-1.74-.2,0-.2.19-.39.19a3.09,3.09,0,0,0-.77,1.36l.58-1.16a4,4,0,0,0-1.16.77,16.47,16.47,0,0,0-2.71,3.1,56.66,56.66,0,0,0-3.87,9.48C171.08,284.57,170.31,288.06,169.73,291.73Z"/><path class="cls-1" d="M241.53,251.28c.19,0,.58,0,.58.39a3.77,3.77,0,0,1-.58,1.55A2.69,2.69,0,0,0,241,255l.38.2c-.19.38-.38,1-.58,1.35-.19.58-.38,1-.58,1.55a29,29,0,0,0,.39,5.8c.19,0,.19-.19.39,0a3,3,0,0,1,.19,1.36c0,.58.19,1.16.19,1.55a.65.65,0,0,0,.2.38c.19.2.19.2.38.2a3.66,3.66,0,0,1,.2,1.35l.39,1,.19.39.19.38,1.16,1.75a11,11,0,0,0,1.16,1.54c.2.2.39.58.59.78s.38.58.58.77a12,12,0,0,1,1.35,1.55,11.3,11.3,0,0,0,1.55,1.36c.19.19.58.38.77.58s.58.38.78.58c.58.38,1,.77,1.55,1.16.58.19,1,.58,1.54.77a8.63,8.63,0,0,1,1.36.78c.19.19.39.19.39.38.19.2.38.2.38.39.39.19.58.58,1,.77l1.74,1.75c.39-.58,1.36-.58,2.32-.58s1.75,0,1.94-1c.77.58,1.94,1.35,2.13,1a4,4,0,0,1,1.74-1.17,2.93,2.93,0,0,1,1.36-.19,6.09,6.09,0,0,1,1.74.19c1,.39,1.93,1.55,2.32,1.55.58,0-.58-1.35,0-1.55-1.36-1-2.9-1.74-4.26-2.71l-1-.77a1.94,1.94,0,0,1-1-.77c-.58-.39-1.36-1-1.94-1.36a35.66,35.66,0,0,1-6.77-6.38,4.47,4.47,0,0,1-1-1c-.39-.39-.77-1-1.35-1.55a18.72,18.72,0,0,1-2.33-4.84,13.08,13.08,0,0,1-.58-5.42A26.55,26.55,0,0,1,253,255v-.39c.58-1.74,1.54-3.87,1.93-5.61.2-.77.2-1.74.39-2.71a2.71,2.71,0,0,1-1.16.39,3.91,3.91,0,0,0,1-1.74c.59-1.74-.58-1.55-1.93-1.55-.77.19-.77-.77-1.74-.39a5.88,5.88,0,0,1,1-1.16c-.2-.19-.39.2-.78.58-.19.39-.58.78-.58.39.58-.39.77-1.16,1.16-1.55-.39-.19-.77.39-1.16.78s-.77.77-1,.58c0-.2.58-.39.78-.78.38-.19.58-.58.38-.77,0-.2-.58.38-.77.58a4.88,4.88,0,0,0,1-2.13c0-.39-.39-.58-1.36,0a4.32,4.32,0,0,1,1-.77c.19-.2.39-.2.58-.39l.19-.2.2-.19a.19.19,0,0,1,.19-.19h0c-.19.19-.19.19-.38.19s-.2.19-.39.19c-.2.2-.39.39-.58.39l.38-.39c.2-.19.39-.38.59-.38h-.39a2.58,2.58,0,0,0-.78.58l.58-.58h-1a10,10,0,0,0-2.52,1.16,58.08,58.08,0,0,0-4.26,5.42C243.27,246.83,242.3,249,241.53,251.28Z"/><path class="cls-2" d="M218.69,273c.19,0,.58-.19.58,0a4,4,0,0,1,0,1.55,4.25,4.25,0,0,0,0,1.55h.39v2.71a21.93,21.93,0,0,0,2.51,4.64c.2-.19.2-.19.39,0s.39.58.78,1c.19.39.58.77.77,1.16l.39.39h.38a4.25,4.25,0,0,0,.78,1l.77.59.39.38.39.2a7.93,7.93,0,0,0,1.74,1c.58.39,1.16.58,1.74,1,.19.19.58.19.77.39.39.19.58.19,1,.39a6.63,6.63,0,0,1,1.74.77c.58.19,1.16.39,1.94.58.39,0,.58.19,1,.19a1.67,1.67,0,0,0,1,.2c.58.19,1.36.19,1.94.38h1.74a3.68,3.68,0,0,1,1.55.2.72.72,0,0,1,.58.19c.19,0,.39.19.58.19.39.2.78.2,1.16.39.78.2,1.55.58,2.32.78,0-.58,1-1,1.94-1.36s1.74-.58,1.55-1.35c1,.19,2.32.38,2.32.19a3,3,0,0,1,1.16-1.55A6.55,6.55,0,0,1,256,290a3.72,3.72,0,0,1,1.55-.39c1,0,2.32.58,2.71.39.58-.39-1.16-1-.58-1.16a47.73,47.73,0,0,0-4.84-.77l-1.16-.2c-.39,0-.77-.19-1.16-.19a9.88,9.88,0,0,0-2.32-.39,56.87,56.87,0,0,1-8.71-2.71,7.46,7.46,0,0,1-1.16-.38,8.76,8.76,0,0,1-1.75-1,19.15,19.15,0,0,1-4.06-3.1,12.31,12.31,0,0,1-2.52-4.26,8.62,8.62,0,0,1-.58-3.48v-.19a48.12,48.12,0,0,0-.19-5.23c-.19-.77-.39-1.55-.58-2.32-.39.19-.58.58-1,.77a14.51,14.51,0,0,0,.39-1.74c0-1.74-1.16-1.16-2.32-.58-.58.39-1-.39-1.74.19.19-.58.38-.77.58-1.35-.2,0-.39.39-.39.77-.19.39-.19.78-.58.39.39-.58.19-1.16.58-1.74-.39,0-.58.58-.78,1s-.38.77-.58.77c0-.19.39-.58.58-1s.39-.77.2-.77-.39.58-.39.77a10.1,10.1,0,0,0,.19-1.93c-.19-.39-.58-.39-1.35.38.19-.38.39-.58.58-1,.19-.2.19-.39.39-.58a.19.19,0,0,1,.19-.2v-.38h0c0,.19-.19.19-.19.38s-.2.2-.2.39c-.19.19-.19.39-.38.58,0-.19.19-.39.19-.58s.19-.39.19-.58c-.19,0-.19,0-.38.19s-.39.58-.58.78c.19-.2.19-.39.38-.78-.38.2-.58.2-1,.39-.78.77-1.75,1.35-1.94,1.93a34,34,0,0,0-1.74,5.81A14.94,14.94,0,0,0,218.69,273Z"/><path d="M311.78,245.87c.19,0,.58-.2.58,0,.19.77-.58,1.35-.39,1.93h.39a1.48,1.48,0,0,1-.39.78c-.19.19-.19.58-.38.77v3.1c.19,0,.38,0,.38.19a6.05,6.05,0,0,1-.38,1.55v.19a.66.66,0,0,0,.38.19c0,.2-.19.59-.19.78a19,19,0,0,1,0,4.64v1.16c0,.39-.19.78-.19,1.17s-.2.77-.2,1.16a2.83,2.83,0,0,1-.38,1.16,2.38,2.38,0,0,1-.2,1.16,2.78,2.78,0,0,1-.38,1.16c-.2.39-.78.77-1.17,1.16s-1,.58-1.35,1a1.49,1.49,0,0,1,.39,1v.58a.7.7,0,0,1-.2.58c-.19.77-.38,1.55.2,2.13-.2.19-.39.19-.58.38s-.39.2-.58.39c-.39.2-.59.39-.59.58a3.82,3.82,0,0,1,.2,2.13,4.62,4.62,0,0,1-1.74,2.32c-1,.39-2.52.39-2.71.78v.38a.65.65,0,0,0,.38.2c.39.19.78.19.58.58a23.3,23.3,0,0,0,10.26-5,31.79,31.79,0,0,0,7-9.1,8.29,8.29,0,0,1,.39-1.55c.19-.58.38-1.55.77-2.51a51.82,51.82,0,0,0,1.35-6.39,41,41,0,0,0,.59-6.58c.19-1.94.19-3.68.19-4.64v-.39c0-2.13-.19-4.65-1.16-6.19a8.58,8.58,0,0,0-1.55-2.13l-.58,1.16a3.17,3.17,0,0,0-.39-1.74c-1-1.55-1.55-.39-2.32.38-.39.58-1.16,0-1.55.78A2.11,2.11,0,0,0,316,236c-.39,0,.38,1.54-.2,1.16a4.63,4.63,0,0,0-.38-1.55c-.58.19,0,1.74-.58,1.74-.2-.19.58-1.55-.2-1.35-.19,0,0,.58,0,.77-.38-1.35-1.35-2.13-1.74-.58v-1.55h0v.78l-.19-.78-.2.19v0l-.58.59c-.38.77-1,1.35-.77,1.74A69.79,69.79,0,0,1,311.78,245.87Z"/><path d="M339.65,269.28c.19,0,.58-.19.58.2.19,1-.58,1.74-.39,2.9h.39c-.19.77-.39,1.55-.58,2.52a42.7,42.7,0,0,0,.39,4.83h.38a10.48,10.48,0,0,1,0,2.52c0,.19,0,.19.2.39s.19.19.38.19V284a63.51,63.51,0,0,0,5.42,14.52,12.34,12.34,0,0,1,1.94,2.9,12.72,12.72,0,0,1,1,2.32c.38.78.58,1.74,1,2.32.58-.38,1.55,0,2.33.39a2.76,2.76,0,0,0,1.16.39c.38,0,.77,0,1-.39.2.39.58,1,.78,1.36.39.38.58.58.77.58,1.16-.58,2.71-.78,4.84.38.39.39.58.78,1,1.16.19.39.58.78.77.78.39,0,.2-.39.2-.78s0-.77.19-.77a69.54,69.54,0,0,1-5.42-7.74,32.63,32.63,0,0,1-3.48-8.9,4.49,4.49,0,0,1-.58-1.36,18,18,0,0,1-.58-2.32,55.78,55.78,0,0,1-1-6.77c-.2-2.52-.39-5-.39-7.36v-5.8a28.58,28.58,0,0,0-1.16-8.13c-.58-1-1.16-2.13-1.74-3.1-.2.58-.2,1.16-.39,1.55a5.56,5.56,0,0,0-.77-2.52c-.58-1-1-1.16-1.36-1s-.58,1-1,1.35c-.19.77-1.16.19-1.35,1.16-.19-.58-.19-1-.39-1.55-.38,0,.78,1.75,0,1.55a5.94,5.94,0,0,0-.58-1.74c-.38.39.39,2.13-.19,2.13v-1.55c0-.19-.19-.19-.39-.19v.38a.69.69,0,0,0,.2.58,4.22,4.22,0,0,0-.59-1l-.58-.58c-.38-.2-.58.19-.77,1-.19-.58-.19-1.35-.39-1.74h0c0,.2.2.78.2,1l-.39-.77-.19.19a.72.72,0,0,0,.19.58l-.19-.58a1,1,0,0,0-.39.77,2.62,2.62,0,0,1-.39,1.16.67.67,0,0,1-.19.39v.39A60.9,60.9,0,0,1,339.65,269.28Z"/><path class="cls-1" d="M230.5,296.18c0,.2,0,.58-.2.58-.38.2-.58,0-.77-.19a1,1,0,0,0-.78-.39l-.19.39c-.39-.19-.77-.58-1.16-.77-.39,0-.77-.2-1.35-.2-.39,0-.78-.19-1.36-.19,0,.19,0,.39-.19.39a1.68,1.68,0,0,1-1.16-.58h-.2l-.19.19c-.19,0-.39-.19-.58-.39a21.62,21.62,0,0,1-8.13-1.93,7.07,7.07,0,0,1-2.13-.78,2.83,2.83,0,0,1-1-1.16c-.19-.19-.19-.38-.38-.77-.2-.2-.2-.39-.39-.58-.58.58-1.36.38-2.13.19s-1.55-.39-1.93.39c-.39-.58-.78-1.55-1.17-1.36a6.63,6.63,0,0,1-1.93.39,3.34,3.34,0,0,1-2.32-1.16c-.39-.58-.39-1.94-.78-2.13-.19-.19-.38.19-.58.58s-.19.58-.58.58a26.21,26.21,0,0,0,4.26,8.32,32,32,0,0,0,6.77,6.78c.2,0,.39.19.58.19.2.19.39.19.78.39a18.88,18.88,0,0,0,1.93,1.16,53.91,53.91,0,0,0,5.61,2.51,27,27,0,0,0,6,1.55c1.75.39,3.29.58,4.26.78h.39c1.93.19,4.26.19,5.8-.58.78-.39,1.36-1,2.13-1.36a4.24,4.24,0,0,1-1-.58c.77,0,1.54,0,1.74-.39,1.55-.77.38-1.54-.2-2.32-.38-.39,0-1.16-.58-1.55h1.16c0-.38-1.35.39-1.16-.38.39.19.78-.2,1.36-.2-.2-.58-1.55,0-1.55-.58.19-.19,1.35.58,1.16,0,0-.19-.39-.19-.58,0,1.36-.38,1.74-1.16.58-1.74h1l-.19-.19H239c-.19-.2-.39-.39-.39-.58-.58-.39-1.16-1-1.35-1A22.26,22.26,0,0,0,230.5,296.18Z"/><path d="M245.59,306.25c.2.19,1.36-.2-.19,1-1.16,1-2.52,1.74-3.68,2.7a10.87,10.87,0,0,0-1.74,1.36c-.39.39-1,.77-1.36,1.16s-1,.77-1.35,1.16a8.69,8.69,0,0,0-1.35,1.36l-.59.58-.38.38-.2.2h0v4.06c0,1,.2,2.13.2,3.29,0,.78.19,1.36.19,2.13.19.19.39.19.39.39.19,4.45.39,9.29.58,14.13.39,3.87.58,7.74,1,11.61,1.16.38,2.13.58,3.29,1a11.24,11.24,0,0,1,1.54.58l.39.19h.78l1,.19c.39,0,.78.2,1.36.2h.39l.38.19,1,.19c.77.2,1.36.39,2.13.58l2.9-2.32c.39-.39,1-.58,1.36-1s1-.58,1.35-1c.58-.39,1.36-.78,1.94-1.16l1.35-.78c-.19,0-.39-.19.2-.58a108.64,108.64,0,0,1,12-5.22c.78-.2,1.36-.59,1.94-.78s.58-.39.58-.58a28.17,28.17,0,0,1,3.1-1,4.94,4.94,0,0,1,1.35-.38c.39-.2,1-.2,1.36-.39,1.35-.58,2.9-1,4.25-1.55a35.51,35.51,0,0,1,4.26-1.35l2.13-.78c.77-.19,1.35-.39,2.13-.58a39.68,39.68,0,0,0,4.45-1.35c.77-.2,1.55-.39,2.13-.58.77-.2,1.55-.39,2.13-.58,1.55-.39,2.9-.78,4.45-1.17,2.9-.58,6-1.35,9.1-1.93a148,148,0,0,1,18.57-2.13c1.55,0,3.1-.19,4.84-.19h7.55c1,0,1.94.19,2.9.19.39,0,1,.19,1.55.19.39,0,.39.2.39.39v.58a2.62,2.62,0,0,1-.39,1.16,7.23,7.23,0,0,1-1.55,2.13,20.54,20.54,0,0,1-2.13,1.94l-.58.38c-.19.2-.38.2-.77.58l-1.74,1.17A67.46,67.46,0,0,1,330,341.86c-1.16.38-2.13.77-3.29,1.16s-2.13.77-3.29,1.16-2.13.58-3.29,1c-1,.38-2.13.58-3.09,1,.77.58-3.49,2.51-7.55,4.06l-2.91,1.16c-1,.39-1.74.77-2.32,1-1.16.58-1.55,1.16-.58,1.16a30.32,30.32,0,0,1-4.45,1c-1.55.38-3.1.77-4.45,1-2.71.58-4.84,1.16-5,1.54a4.33,4.33,0,0,1-1.36,1.36,15.17,15.17,0,0,1-3.09,1.55,106.56,106.56,0,0,1-14.52,4.45c-5.61,1.16-14.51,2.13-16.45,2.71-3.1,1,7.55-.39,4.45.58,9.1-1.36,18.19-2.91,27.29-4.84,8.9-1.74,18-3.87,26.9-6.39a195.74,195.74,0,0,0,26.52-9.29l1.74-.77a10.6,10.6,0,0,0,1.55-.78,11,11,0,0,0,1.54-.77l1.55-1,.78-.38.77-.58.77-.59.39-.19c.19-.19.39-.19.58-.39l2.71-1.93.78-.39.58-.58,1.16-1c3.09-2.9,5.42-6,6.19-8.9a9.37,9.37,0,0,0,.19-4.64,17,17,0,0,0-.38-1.94l-.39-1.93c-1.16-.39-2.32-.58-3.48-1a21.16,21.16,0,0,0-3.68-.78c-1.36-.19-2.71-.58-4.07-.77a29.27,29.27,0,0,0-4.25-.39l-1-.19h-2.13c-.77,0-1.55-.19-2.32-.19-1.55,0-3.1-.2-4.65-.2-2.51.2-7.16.2-13.54.78a173.36,173.36,0,0,0-22.45,3.67c-1,.2-2.13.58-3.29.78s-2.13.58-3.29.77-2.13.58-3.29.78a21.17,21.17,0,0,0-3.29,1c-2.33.58-4.46,1.36-6.78,1.94-2.32.77-4.64,1.35-7,2.32L268,330.05l-1.74.58-1.74.58-3.49,1.36c-1.16.58-2.32,1-3.48,1.55a26.42,26.42,0,0,0-3.48,1.54c-.58.2-1.16.59-1.74.78a7.65,7.65,0,0,0-1.75,1c-.58.38-1.16.58-1.74,1a1.42,1.42,0,0,1-.77.39l-.39.19c-.19.2-.19.2-.39.2-.19.19-.58.39-.77.58h0v-1c-.39-5.42-.77-10.45-1.16-14.71,0-.77-.19-1.35-.19-2.13v-1.35h0a3.77,3.77,0,0,1,1.16-.77,13.19,13.19,0,0,1,2.13-1.55l1.74-1.16a106.39,106.39,0,0,1,18.19-9.49c3.29-1.35,6.39-2.51,9.48-3.48s6-1.94,8.71-2.52c5-1.35,10.06-2.71,15.29-3.67-2.52,0-4.84,0-6.77.19.58-.19,1.35-.19,1.93-.39.58,0,1.36-.19,1.94-.19a26.87,26.87,0,0,1,3.67-.39c2.33-.19,4.07-.58,5.23-.58,2.9-.39,4.64-.58,5.61-.77s1-.39.58-.58a12.11,12.11,0,0,0-2.32-.58l-3.48-.58c-1.55-.2-1.36-.39-1.36-.78s-.19-.58-2.71-.58c1,0,1.74-.19,2.52-.19a7.73,7.73,0,0,0,2.13-.2c1.35,0,2.71-.19,4.64-.19.2-.19-.58-.19-1.55-.19s-2.32.19-3.67.19-2.52.19-3.29.19-1,0-.39-.19c1.74-.19,3.68-.19,5.61-.39s3.87-.19,5.61-.38a35.76,35.76,0,0,0-6.77,0H305.2c-1,0-1.55,0-1.55-.2,1.94-.38,10.45,0,11-.58h-1.93c-1.16,0-2.52.2-3.49.2,2.91-.2,5.42-.39,7.36-.59s3.48-.19,4.45-.38c1.74-.39.58-.78-4.65-1h6.2c2.13,0,4.45.19,6.38.19h0c-1,0-2.32-.19-3.48-.19-1.35,0-2.52-.19-3.48-.19h6.58c-.39-.2-.78-.2-1.16-.39a43,43,0,0,0-5-.19,36.54,36.54,0,0,1,4.46.19c-1.17-.19-2.33-.58-3.68-.77-5.23-.39-10.26-1-13.16-.78a172.8,172.8,0,0,0-17.23,1.55,126,126,0,0,0-17,3.48,131.29,131.29,0,0,0-16.64,5.81C255.85,300.25,250.43,303,245.59,306.25Z"/><path d="M100.25,180.45c6.39,3.1,10.26,3.68,11.42,1.36,1.55-3.1.19-8.91-3.87-17.61a13.47,13.47,0,0,1-1.16-2.71c0-.2.19-.39,1-.2H108c1.74,1.74,3.48,5.81,5.61,12s2.33,10.65,1,13.55a6.67,6.67,0,0,1-2.13,2.51c-2.51,1.94-7.55,1-15.48-2.71a57.31,57.31,0,0,1-5-2.9c-2.13-1.35-3.29-2.13-3.29-2.32-.2,0,0,.19,0,.58.19.39.38,1,.77,1.94s.78,1.74,1.16,2.7a30.25,30.25,0,0,0,1.74,3.49,29.06,29.06,0,0,1,1.75,3.68,38.62,38.62,0,0,0,3.48,7c3.48,2.13,5.42,4.65,5.81,7.74,0,.58,0,1.17-.2,1.36s-1.16,0-3.09-1-6.39-4.06-13.74-9.29Q75.57,191.78,71.8,188c-.77,3.68-.19,6,1.36,7,1.16.77,1.54,1.35,1.35,1.93q-.29.58-1.74,0c-3.1-1.55-4.26-5.42-3.29-11.22a132.4,132.4,0,0,1-20.13-24.39c-6-9.29-9.87-18.19-11.42-26.9-1.93-8.71-1.16-16.26,1.94-22.64a25.63,25.63,0,0,1,5.61-7.36,18.15,18.15,0,0,1,13-4.25,17.33,17.33,0,0,1,6.19,1.74c6,2.9,9.68,8.32,11.22,16.45,1.17,5.61,1.55,12.77,1.36,21.09a171.54,171.54,0,0,1-1.36,20.32c-.38,5-1.35,12.58-2.9,22.26,3.68,3.87,11,9.48,22.06,17.22A111.9,111.9,0,0,1,89.22,188c-2.52-5-4.07-8.32-4.84-9.87a9.79,9.79,0,0,1-3.68-6.39c-.38-2.51.39-3.48,2.33-2.51a74.66,74.66,0,0,1,6.58,4.45A56.66,56.66,0,0,0,100.25,180.45Zm-40.64-78c-6-.58-11,3.1-14.9,10.84-3.49,7.35-4.46,15.67-2.91,25.16.58,4.06,2.91,9.48,6.58,16.06a69.24,69.24,0,0,0,7.94,10.64c3.09,3.29,6,6.39,8.9,9.29,2.71,2.91,4.65,4.65,5.42,5.61a209.76,209.76,0,0,0,2.52-31.93c.19-13.55-.39-23.8-1.75-31-1.54-7.16-4.25-11.81-8.13-13.74A19.89,19.89,0,0,0,59.61,102.46Z"/><path d="M104.51,129.17a7.83,7.83,0,0,1,7.16,1.35c2.13,1.55,3.68,4.45,5,8.52l2.13-2.71c1-1.36,1.16-1.16.58.77a29.65,29.65,0,0,1-1.94,5,24.34,24.34,0,0,1,.58,5.42c0,1.94-.38,2.52-1,1.74l-.78-1.54-.38-2.52c-5,7.74-7.55,12-7.94,12.58a28,28,0,0,0,6.77,7.55c2.91,2.13,5.42,2.9,7.55,2.32a8.68,8.68,0,0,0,4.45-2.32c4.65-6.39,6.2-15.29,4.07-26.9-.2-1.36.19-1.75,1-1.17a3.76,3.76,0,0,1,.77,1.94,41.93,41.93,0,0,1,.58,12.39c-.58,7.93-2.13,13.35-4.45,16.64-2.52,3.29-5.23,5.22-8.52,5.81s-6.58-.59-10.25-3.29a31.37,31.37,0,0,1-4.65-4.46,43.06,43.06,0,0,1-5.8-9.29,39.43,39.43,0,0,1-3.88-12.58c-.58-4.25.2-7.35,1.94-9.67A12.65,12.65,0,0,1,104.51,129.17Zm10.06,12.77c-2.13-3.87-4.06-6.58-6-8.13-1.93-1.35-3.48-1.35-4.64.39-1.16,1.55-1.55,4.45-1.16,8.51a41.71,41.71,0,0,0,3.09,11.23C110.89,147,113.8,142.91,114.57,141.94Z"/><path d="M236.69,84.85c.77,3.29,1.93,4.84,4.06,4.45,1.16-.2,3.49-2.52,7.16-7.16,3.68-4.45,5.62-7,6-7.36.2-.38.58-.58.78-.38s.39.19.39.38v.58c-1.17,3.1-3.88,7.16-8.52,12.2-2.9,3.67-5.81,5.61-8.13,6.19-3.87.77-6.39-2.13-7.74-8.52-.19-1.16-.58-3.09-.77-5.41s.19-9.87,1.16-22.26c0-1,1.16-1.55,3.48-2.13,2.32-.39,3.48,0,3.87,1.16a16.74,16.74,0,0,1-.19,5.23q-.59,3.48-2.32,4.06c-.59.19-.59,3.1-.2,8.71C236.3,80.4,236.5,83.69,236.69,84.85Zm4.45-45.29c.77-.19,1.16,0,1.36.58s-.39,1.74-1.36,3.48C239,47.88,236.3,49,233,47.3c-.58-.19-.58-.58-.38-1C235.72,42.27,238.62,40,241.14,39.56Z"/><path d="M280.81,48.66c1,0,1.36,0,1.55.38s-.77,1-2.71,1.55A92.44,92.44,0,0,1,265,53.88c-2.52,7.74-4.07,17.42-4.65,28.84s-.77,19.93-.19,25.16c.58,7.93,2.32,13.16,5,15.48a6,6,0,0,0,2.51,1.35c1,.39,1.36.78.78,1a19.09,19.09,0,0,1-2.71.58c-1.16.2-3.29-.58-6-2.13s-4.45-4.25-5.23-8.12a56.06,56.06,0,0,1-1-8.91c-.39-4.25.19-12,1.55-23.61a217.64,217.64,0,0,1,5-28.64c-.58.19-1.16.19-1.74.39-2.13.19-3.49-.39-4.26-1.55-.58-1.16-.58-1.94,0-2.13a20.51,20.51,0,0,1,3.48-.58,14.45,14.45,0,0,0,3.1-.58c4.45-15.1,8.32-25.93,11.42-32.13C277.72,6.66,284.1.66,290.88.08a13.58,13.58,0,0,1,3.87.19c2.71.78,4.06,2.33,4.26,4.65s-.39,4.06-1.94,4.84c.39-1.94.2-3.49-.77-4.45A4.39,4.39,0,0,0,292.43,4c-3.68.39-7.55,3.87-11.62,10.26a118.47,118.47,0,0,0-15.09,35.61Z"/><path d="M298.43,49c8.32.39,12.38,1.16,12.38,2.13,0,.2-1.35.39-4.06.58-8.9.58-13.74.78-14.52,1-6.19,13.35-9.48,23-9.67,28.84a6.37,6.37,0,0,0,1,4.06A2.45,2.45,0,0,0,286,86.78c1,0,1.74-.19,2.32-.19a9.87,9.87,0,0,0,2.91-1c1.35-.58,2.32-1,3.29-1.35,1.93-.78,5.8-3.29,11.41-7.16,1.94-1.36,3.1-1.55,3.1-.78,0,1.55-3.29,4.26-9.48,8.32-6.39,4.07-11.42,6-15.29,5.81h-.39c-3.48-.39-5.8-1.55-6.77-3.29a11.23,11.23,0,0,1-.58-4.06,31.56,31.56,0,0,1,1-6.58,67.7,67.7,0,0,1,3.1-9.68c1.55-3.87,2.9-7.36,4.07-10.07s1.74-4.25,1.74-4.25c-1.16,0-5.42.19-12.78,1-.58,0-.77-.58-.77-1.74a2.49,2.49,0,0,1,1.94-2.51c1.16-.39,5.61-.58,13-.58,4.07-12,7.16-19.55,8.9-23a1.81,1.81,0,0,1,1.55-1.16c.58,0,1.55,1,2.71,2.51,1.16,1.74,1.74,2.9,1.74,3.68a5.8,5.8,0,0,1-.38,1.93L293.2,49A24.06,24.06,0,0,1,298.43,49Z"/><path d="M326.49,80.59c-1.55,7-1,10.84,1.35,11.42,3.29.77,8.71-1.94,16.07-7.94,1.35-1.16,2.13-1.74,2.32-1.93s.39.19.39,1v.38c-1.36,2.13-4.84,4.84-10.26,8.32s-9.87,4.84-13,4.26a6.57,6.57,0,0,1-3.09-1.55c-2.52-1.93-2.91-7.16-1-15.67a41.93,41.93,0,0,1,1.55-5.61c.77-2.33,1.16-3.68,1.54-3.88,0-.19-.19,0-.38.2a12.37,12.37,0,0,0-1.74,1.16A20.86,20.86,0,0,0,318,72.65c-.77.59-1.74,1.55-2.9,2.52a39.24,39.24,0,0,1-3.29,2.71,42.58,42.58,0,0,0-6,5c-1.16,3.87-3.29,6.39-6.19,7.36-.58.19-1.16.38-1.36.19-.19,0-.19-1.16.2-3.1.38-2.13,2.32-7.16,5.61-15.48S309.84,58,311.78,55c-3.68.2-5.81,1.16-6.39,3.1-.58,1.35-1,1.94-1.54,1.74s-.59-.77-.39-1.55c.77-3.48,4.06-5.42,10.26-5.8a127.94,127.94,0,0,1,18.77-25.36c7.55-8.12,15.29-13.93,23.22-17.61,7.94-3.87,15.48-5,22.45-3.67a23.75,23.75,0,0,1,8.52,3.67,17.27,17.27,0,0,1,7.16,11.62,14.34,14.34,0,0,1-.2,6.38c-1.35,6.39-5.8,11.42-13.16,14.9a91.2,91.2,0,0,1-20.12,6.39c-8.13,1.74-14.91,3.1-19.94,3.68s-12.58,1.35-22.25,2.32c-2.91,4.45-6.58,13-11.42,25.55,2.13-1.94,5.22-4.84,9.48-8.33l8.32-7.16a10.21,10.21,0,0,1,5.23-5c2.32-1.16,3.29-.58,2.9,1.55-.19.58-1,3.1-2.71,7.55A84.25,84.25,0,0,0,326.49,80.59Zm65.8-58.25c-1-6-5.61-10.07-14.13-11.81-7.93-1.74-16.26-.58-25,3.29-3.87,1.55-8.52,5-13.94,10.26a64.42,64.42,0,0,0-8.51,10.45c-2.52,3.87-4.84,7.35-6.78,10.84-2.13,3.29-3.48,5.61-4.06,6.58,7.93-.58,18.38-2.33,31.54-5.23s23-6,29.61-9.29c6.58-3.09,10.46-7,11.42-11.22C392.29,24.85,392.48,23.69,392.29,22.34Z"/><path d="M444,147.94a64.21,64.21,0,0,0-13.54,1.16,20.28,20.28,0,0,0-7.17,2.71c-1.35,1-1.54,1.74-1,2.71,1.74,2.51,11,3.48,27.67,2.9,6,.2,7,1.74,3.1,4.45a73.48,73.48,0,0,0-6.39,4.26c-7,5-9.48,9.1-7.35,12.19,2.32,3.1,7.55,5,16.06,6,.39,0,.58.58.19,1.36a20.75,20.75,0,0,1-5.41-.39,27.14,27.14,0,0,1-8.71-2.9c-3.1-1.55-5-2.91-6-4.07a7.71,7.71,0,0,1-1.74-3.29c-1.36-4.25,2.12-9.48,10.45-15.48-8.52.58-14.13.58-17,0-4.26-.77-7-2.13-8.33-3.68l-.38-.38c-1.75-3.29-.78-6.39,2.9-9.1s8.51-4.45,14.71-5.42a52.28,52.28,0,0,1,19,.58c6.39,1.36,11,3.87,13.94,7.74a15.28,15.28,0,0,1,2.51,6.39,5.77,5.77,0,0,1-2.71,5.61c-1.93,1.36-3.67,1.36-5.22-.19a7.6,7.6,0,0,0,3.87-1.36,2.89,2.89,0,0,0,1.16-2.9,5,5,0,0,0-1.16-2.9C464.28,149.87,456.54,147.94,444,147.94Z"/><path d="M434.29,184.9c-1.75-3.67-1.75-6,.19-7a2.52,2.52,0,0,1,2.52.38,6.23,6.23,0,0,1,2.9,3.29c5.61,9.68,8.71,14.71,9.09,15.29a7.32,7.32,0,0,0,4.46-.77c1.54-.78,2.7-3.1,3.87-7a21.68,21.68,0,0,1,4.64-9.48,16.4,16.4,0,0,1,5.23-4.84,8.24,8.24,0,0,1,4.83-.77c7.75.77,12.78,3.67,14.91,8.51,1.93,4.06,1.74,7.55-.39,10.06a3,3,0,0,1-2.13,1.17c-.77,0-1.16-.2-1.16-.58a1.06,1.06,0,0,1,.58-1c1.74-1.16,2.32-2.33,1.55-3.87a8.1,8.1,0,0,0-2.13-2.52,16,16,0,0,0-12.77-4.64,7.87,7.87,0,0,0-3.49,1,12.38,12.38,0,0,0-3.67,3.1,13.62,13.62,0,0,0-2.91,5.81c-1.16,4.06-3.09,6.77-5.61,7.93a6.64,6.64,0,0,1-3.48.78,96.13,96.13,0,0,0,12.58,9.09v.39c-1.36.58-4.65-1.16-9.68-4.84-1.74-1.16-3.29-2.32-4.45-3.1l-1.94-1.16c-2.51-.19-5.61-2.71-9.29-7.93C436.61,189,435.06,186.84,434.29,184.9Z"/><path d="M497.38,219.55c2.32,7.93,3.09,12.19,2.13,12.38-.2,0-1-1.16-1.94-3.68q-5.22-12.18-5.81-13.35c-14.7-1.35-25-1.16-30.57.39a6.1,6.1,0,0,0-3.49,2.32,2.83,2.83,0,0,0-.38,2.71c.38,1,.77,1.55,1,2.13a12.59,12.59,0,0,0,1.94,2.51c1,1.17,1.74,1.94,2.32,2.71,1.36,1.55,5,4.45,10.65,8.52,1.93,1.55,2.51,2.32,1.74,2.71-1.36.39-5-1.74-11-6.19-6-4.65-9.49-8.71-10.65-12.39,0-.19,0-.19-.19-.39-.78-3.48-.58-6,.77-7.35a9.19,9.19,0,0,1,3.68-1.94,39.13,39.13,0,0,1,6.58-1.35,76,76,0,0,1,10.26-.39c4.25.19,7.93.39,10.83.58,3.1.2,4.65.2,4.46.2q-.58-1.76-5.23-11.62c-.19-.58.19-1,1.55-1.35a2.76,2.76,0,0,1,3.1,1c.77,1,2.32,5,4.83,12,12.58-.2,20.91.19,24.78.77.77.19,1.35.39,1.54,1.16.2.58-.19,1.74-1.54,3.48-1.17,1.75-2.13,2.71-2.91,2.91a3.53,3.53,0,0,1-1.93.19l-18.58-3.1A18.85,18.85,0,0,1,497.38,219.55Z"/><path d="M502.41,257.67a8.21,8.21,0,0,1-6,4.07c-2.52.38-5.81-.59-9.48-2.52l.38,3.48c.2,1.74,0,1.74-1,0-.78-1.74-1.55-3.29-2.13-4.84a23.19,23.19,0,0,1-4.26-3.48c-1.36-1.35-1.55-1.93-.58-1.93l1.55.58,2.13,1.35c-1.94-9.09-2.91-13.93-3.1-14.51a28.93,28.93,0,0,0-10.06-.58c-3.49.38-5.81,1.74-7,3.48-1.16,1.93-1.74,3.48-1.55,4.64,1,7.75,6.39,15.1,15.87,22.07,1.16,1,1.16,1.35,0,1.54a3.11,3.11,0,0,1-1.74-.77,36.55,36.55,0,0,1-9.1-8.51c-5-6-7.93-11-8.51-15.1a14.23,14.23,0,0,1,1.93-10.06c1.94-2.71,5-4.26,9.68-4.84a33.47,33.47,0,0,1,6.39,0,43,43,0,0,1,10.64,2.51,41.41,41.41,0,0,1,11.61,6.2c3.29,2.51,5.23,5.42,5.61,8.32A15.76,15.76,0,0,1,502.41,257.67Zm-16.26-1.93c4.26,1.35,7.55,1.93,9.87,1.54s3.49-1.54,3.1-3.48c-.19-2.13-1.94-4.26-5.23-7a41,41,0,0,0-10.06-5.8C485.38,249.54,486.15,254.38,486.15,255.74Z"/><path d="M91,346.5c.77,2.52-.19,4.26-3.29,5.23a43.1,43.1,0,0,1-7.93,1.35,31.18,31.18,0,0,1-11.62-1.16,22.44,22.44,0,0,1-11-7,16.91,16.91,0,0,1-3.68-5.8c-1.54-5-.58-7.94,2.91-9.1a5.05,5.05,0,0,1,4.64.58c-5,2.33-7.16,5-6,8.52,0,.19.2.58.2.77,1,1.94,2.9,3.68,6,5.42a32.71,32.71,0,0,0,10.64,3.29A23.7,23.7,0,0,0,83,347.86c2.7-1,3.67-1.74,2.9-2.52a26.68,26.68,0,0,0-12.19-6.77,26.25,26.25,0,0,0-13.94-.2c-.58.2-.77,0-1-.58a3,3,0,0,1,.58-2.32,16,16,0,0,0,1-1.93c3.87-1.17,10.07-2.13,19-2.71A103.15,103.15,0,0,1,104.12,332c7.74,1.35,13.74,3.87,17.81,7.16a17.61,17.61,0,0,1,1.93,2.71,14.86,14.86,0,0,1,1.55,2.71,1.47,1.47,0,0,1,.19.77,8.22,8.22,0,0,1-1.93,6.19c-.39.58-.78,1-1,1s-.39,0-.58-.39,0-.58,0-1a9.59,9.59,0,0,0,.19-7,.62.62,0,0,0-.19-.39c-1.36-3.87-8.9-6.38-23-7.74s-23.81-1.35-29.22,0a55.75,55.75,0,0,1,10.25,3.87c4.45,2.13,7.36,3.49,8.32,4.07A3.64,3.64,0,0,1,91,346.5Z"/><path d="M100.06,378.63q-3.19,1.74-13.36,4.06a86.71,86.71,0,0,1-14.13,2.71c1.75,2.13,3.29,2.91,4.65,2.52a1.58,1.58,0,0,1,1.35,0c.39.19.58.39.39.58,0,.19-.39.58-1.16.77-2.32.78-5-.38-7.74-3.87a96.4,96.4,0,0,1-23.61-.19c-14.71-1.94-25.16-7-31-15.1a27.63,27.63,0,0,1-2.13-3.67A17.53,17.53,0,0,1,12,360.05a12.88,12.88,0,0,1,4.06-9.48,19.54,19.54,0,0,1,3.87-2.71,10.15,10.15,0,0,1,5-1.16A18.07,18.07,0,0,1,35,349.21c8.13,4.45,19.74,15.48,34.84,32.71,3.67-.19,11.41-2.13,23-5.81a100.39,100.39,0,0,1-19.74-2.71,7.83,7.83,0,0,1-5.42-1c-1.75-1-1.94-1.75-.2-2.52a41.56,41.56,0,0,1,5.23-1.55,39.8,39.8,0,0,0,9.09-3.48c3.1-1.55,4.07-3.1,3.29-4.65a4.58,4.58,0,0,0-1.93-1.93c-1-.58-1.16-1-1-1.36.39-.38,1.36,0,3.1.78a6.69,6.69,0,0,1,3.48,2.9,6.85,6.85,0,0,1,.78,3.29c0,1.16-1,2.13-2.52,3.29A24.44,24.44,0,0,1,83,369.53a41.14,41.14,0,0,1-3.88,1.55c-1.54.58-2.32.78-2.51.58q-.87.3,18.58,3.49c2.71-1,4.45-.39,5.42,1.35C100.64,377.85,100.64,378.44,100.06,378.63ZM50.32,365.47c-7.55-6.58-13.16-11-16.84-13A33.58,33.58,0,0,0,24.77,349c-2.13-.2-3.68-.2-4.84.39-4.06,1.93-5.61,5.41-4.83,10.25a19.76,19.76,0,0,0,1.93,6c.77,1.55,1.74,3.1,2.71,4.65A23.34,23.34,0,0,0,24,375a40.83,40.83,0,0,0,5.42,3.87,37.7,37.7,0,0,0,6.19,2.52,61.7,61.7,0,0,0,6.19,1.35,33.22,33.22,0,0,0,6.78.39H55c1.36,0,3.49-.19,6.58-.39,2.91-.19,5-.38,6-.38C63.67,377.66,57.87,372.05,50.32,365.47Z"/><path d="M173.4,461.46a37.67,37.67,0,0,0-8.7,5.23,19.24,19.24,0,0,0-4.07,4.06c-.58,1-.58,1.74.2,2.13,2.12,1.16,8.51-1.16,19.54-7,4.07-1.74,5.23-1.16,3.49,2.13-1.17,1.94-2.13,3.48-2.91,4.84-3.09,5.8-3.48,9.29-1,10.45q3.78,2,12.78-1.16c.38-.2.58.19.58,1a13.91,13.91,0,0,1-3.87,1.54,23.88,23.88,0,0,1-6.78,1c-2.51,0-4.25-.19-5.22-.77a12,12,0,0,1-2.32-1.74c-2.33-2.52-1.55-7.16,1.93-13.74-5.61,3.09-9.29,5-11.42,5.61-3.09.77-5.42,1-6.77.19a.67.67,0,0,0-.39-.19c-2.32-1.74-2.71-4.07-1-7a22.54,22.54,0,0,1,8.32-8.32,37.54,37.54,0,0,1,13-5.81c4.84-1.16,8.71-1,11.81.78a10.89,10.89,0,0,1,3.87,3.48,4.07,4.07,0,0,1,0,4.65c-1,1.54-2.13,2.12-3.68,1.54a5.56,5.56,0,0,0,2.13-2.13,2,2,0,0,0-.19-2.32,7.51,7.51,0,0,0-1.74-1.74C187.73,456,181.92,457.2,173.4,461.46Z"/><path d="M220.82,497.65c-.58,1.94-2.71,2.9-6.39,3.29a7.71,7.71,0,0,1-3.67-.39c-2.52-1.16-3.87-2.51-4.07-4.45a10.72,10.72,0,0,1,.2-4.45c.38-1.16,1-2.51,1.54-3.87s1.55-3.1,2.71-5.22c1.16-1.94,2.52-3.88,3.87-5.81s2.13-2.9,2.13-2.9c-1,.77-3.29,2.13-6.77,4.25-8.9,5-13.94,8.33-15.1,9.68a5.48,5.48,0,0,1-4.83,2.13c-1.17,0-1.55-.39-1.17-1.16,0-.2.78-1.16,2.13-3.29,4.07-6.19,6.78-11.23,8.13-15.29l1-3.29c.39-1.36,1.74-2.13,3.87-2.52a4.31,4.31,0,0,1,2.32.2c1.16.38,1.36,1.16.78,2.13s-1.75,2.9-3.29,5.8c-3.68,6.58-5.81,10.26-6.39,10.65,6.19-2.71,13.55-7.55,22.06-14.13a2,2,0,0,1,1.74-.39c2.33.78,3.49,1.74,3.49,2.52,0,.58-1.16,2.32-3.1,5a68.08,68.08,0,0,0-4.84,6.77A54.71,54.71,0,0,0,211.72,493a15.78,15.78,0,0,0-1.16,4.64,1.54,1.54,0,0,0,1.36,1.74c2.51.39,5.22-.19,8.32-2.13C221,496.88,221,497.07,220.82,497.65Z"/><path d="M251,474.81a5.88,5.88,0,0,1,1.55,5.23c-.39,1.93-1.74,4.06-4.06,6.19l2.51.39c1.36.19,1.16.39-.19.58a29.5,29.5,0,0,1-4.07.39,15.22,15.22,0,0,1-3.48,2.13c-1.16.58-1.74.58-1.55,0l.78-1,1.54-1.16q-10.44-1.17-11-1.16a17.85,17.85,0,0,0-2.71,7.16c-.38,2.51-.19,4.64,1,5.8a5.53,5.53,0,0,0,3.1,2.13c5.8,1,12.19-1,19.35-6.39,1-.58,1.36-.58,1.16.39,0,.2-.39.58-1,1.16a26.79,26.79,0,0,1-8.12,4.45c-5.42,2.33-9.68,3.1-12.58,2.52a11.07,11.07,0,0,1-6.78-3.68c-1.55-1.93-1.93-4.64-1.35-7.93.19-1.16.77-2.71,1.35-4.65a34.31,34.31,0,0,1,11.42-13.74c2.71-1.74,5-2.51,7.16-2.13A18.44,18.44,0,0,1,251,474.81ZM245.79,486c1.93-2.71,3.09-4.84,3.48-6.77.39-1.75-.19-2.71-1.74-3.1-1.55-.19-3.49.39-6.2,2.13a30.86,30.86,0,0,0-6.38,5.8C241.14,485.26,244.82,485.85,245.79,486Z"/><path d="M255.27,509.26c-3.1-.19-4.65-1-4.45-2.51,0-.58.38-1,1.16-1.55a4.91,4.91,0,0,1,3.1-.78q12.48-.57,13.35-.58a6,6,0,0,0,1-3.29c0-1.16-1-2.9-3.29-5a19.24,19.24,0,0,1-4.65-6.38,13,13,0,0,1-1.35-5.23,5.35,5.35,0,0,1,1.16-3.48c3.29-4.84,6.77-7.16,10.84-7,3.48.19,5.61,1.35,6.58,3.68a2.66,2.66,0,0,1,0,1.74c-.2.58-.39.77-.78.58-.19,0-.39-.39-.39-.78-.19-1.54-.77-2.32-2.12-2.32a6.82,6.82,0,0,0-2.52.58,12,12,0,0,0-7.55,6.78,6.26,6.26,0,0,0-.58,2.71,8.85,8.85,0,0,0,.78,3.48,16.24,16.24,0,0,0,2.71,4.06c2.32,2.13,3.48,4.26,3.29,6.58a6.24,6.24,0,0,1-.78,2.52c4.45-1.94,7.94-3.48,10.45-5.23l.2.2c-.2,1.16-2.33,2.71-6.58,4.64-1.36.78-2.71,1.36-3.68,1.94l-1.36.77c-1,1.55-3.67,2.71-8.51,3.29A17.19,17.19,0,0,1,255.27,509.26Z"/><path d="M294.75,487.59a39.39,39.39,0,0,0-4.45,9.29c-.78,2.51-1.16,4.45-1,5.61s.58,1.74,1.36,1.74c2.32-.19,6.38-5.81,12.38-16.64,2.32-3.68,3.68-3.87,4.07-.2a43.26,43.26,0,0,0,.38,5.62c.58,6.38,2.32,9.48,5,9.29q4.36-.3,9.87-8.13c.2-.2.58-.2,1,.38a12.77,12.77,0,0,1-2.32,3.29,31.88,31.88,0,0,1-5.23,4.65,14.76,14.76,0,0,1-4.83,2.32,5.79,5.79,0,0,1-2.71-.19c-3.29-.78-5.23-5-6-12.58a85.25,85.25,0,0,1-6.39,11c-2.13,2.52-4.06,3.68-5.61,3.87h-.39c-2.9-.19-4.45-1.94-4.84-5.23s.39-7.16,2.13-11.61a41.76,41.76,0,0,1,7.55-12c3.29-3.67,6.58-5.61,10.26-6a11.08,11.08,0,0,1,5,.78,4.32,4.32,0,0,1,2.51,3.87,2.74,2.74,0,0,1-2.12,3.29,4.35,4.35,0,0,0,.58-2.9,2,2,0,0,0-1.55-1.94,5.71,5.71,0,0,0-2.32-.39C303.85,475,299.59,479.27,294.75,487.59Z"/><path d="M418.42,434.75a51.48,51.48,0,0,0,1.93,10.07c1,2.51,1.74,4.25,2.52,5,.77,1,1.55,1.16,2.13.58,1.74-1.55,1.74-8.52,0-20.71-.39-4.45.77-5.42,3.09-2.71a29.8,29.8,0,0,0,3.68,4.26c4.45,4.84,7.55,6.19,9.68,4.45,2.13-1.93,3.09-6,3.09-12.39,0-.38.39-.38,1-.19a19.48,19.48,0,0,1,.19,4.07,22.29,22.29,0,0,1-1.35,6.77,13.45,13.45,0,0,1-2.52,4.84,5.47,5.47,0,0,1-2.32,1.55c-3.1,1.35-7.16-.78-12.38-6.39,1.16,6.19,1.54,10.45,1.35,12.58-.19,3.29-1,5.42-2.13,6.39l-.19.19c-2.32,1.55-4.65,1.16-7-1.36A24.21,24.21,0,0,1,414,441.33a43,43,0,0,1-1.16-14.12q.58-7.26,4.65-11a11.94,11.94,0,0,1,4.64-2.51,4.06,4.06,0,0,1,4.26,1.55c1.16,1.35,1.36,2.71.39,3.87a5.19,5.19,0,0,0-1.36-2.71,2.39,2.39,0,0,0-2.32-.58,3.8,3.8,0,0,0-2.13,1.16C418.22,419.27,417.45,425.27,418.42,434.75Z"/><path d="M446.28,395.08c-1.74,0-3.09.39-3.87,1.35-2.12,2.71-1.93,8.33.78,16.84a53,53,0,0,0,7.35,14.32c.39.58.58,1,0,1.55a1,1,0,0,1-1.55.19l-9.29-10.06c-4.64-5-7.74-8.13-9.09-9.29s-1.55-2.9-.58-5l1.16-1.74c.39-.58,1-.58,1.74-.2l.58.58c.2.2,1.55,2.13,4.07,5.81s4.06,5.81,4.25,6.58a51.81,51.81,0,0,1-3.09-12.77c-.58-4.65-.39-7.55.77-8.91v-.19c1.55-1.74,3.48-1.93,6.19-.77a10.49,10.49,0,0,1,1.55,1c.39.39.39.59.39.78A1.62,1.62,0,0,1,446.28,395.08Z"/><path d="M470.86,405.92c-2.32,3.48-5.8,3.67-10.64.38a20.2,20.2,0,0,1-4.45-3.87,41.47,41.47,0,0,1-9.29-17.22c-.78-3.1-.58-5.23.39-6.77a7.48,7.48,0,0,1,4.45-3.1,4.72,4.72,0,0,1,2.32,0,3.25,3.25,0,0,1,2.13,1.16c.38.58,0,.77-1.36.58a2.93,2.93,0,0,0-2.71,1.55c-1.35,1.93-1,5.22,1,9.29,3.68,7.74,7.36,12.77,10.84,15.09a6.19,6.19,0,0,0,3.48,1.16,3.07,3.07,0,0,0,2.52-1q4.35-6.68.58-19.16c-.19-.78,0-1.16.39-.78a4.82,4.82,0,0,1,1.35,2.71,39.14,39.14,0,0,1,1,7.16C473.57,398.76,472.8,403,470.86,405.92Z"/><path d="M452.48,353.66c.19-.58.58-.77,1-.58s.77,1,1.35,2.52c1.35,3.29,1,5.42-1.55,6.58-.39.19-.58.19-.77-.2C451.7,358.11,451.7,355.4,452.48,353.66Zm24.77,23.61c2.32,1.17,3.87,1,4.45-.38.39-.78.19-3.29-.77-7.55s-1.55-6.58-1.55-7c-.19-.39,0-.58.19-.58s.39-.19.39,0c.19,0,.19.19.39.39,1.35,2.13,2.32,5.61,3.29,10.64.77,3.49.77,6-.2,7.74-1.35,2.52-4.25,2.71-8.51.58-.78-.38-1.94-1.16-3.49-2.12s-5.61-4.65-12.58-11c-.58-.38-.38-1.54.39-3.09s1.55-2.13,2.52-1.74a11,11,0,0,1,3.09,2.51c1.17,1.36,1.55,2.32,1.36,3.1-.2.39,1.55,1.74,5,4.06A34.47,34.47,0,0,0,477.25,377.27Z"/><path d="M477.25,348.82a41.84,41.84,0,0,0,6.58,7.94,16.14,16.14,0,0,0,4.64,3.29c1.17.39,1.75.19,2.13-.58.78-2.13-2.51-8.32-9.87-18.39-2.32-3.67-1.93-5,1.55-3.87,2.13,1,3.87,1.55,5.23,2.13,6.19,2.13,9.67,1.94,10.64-.58,1-2.71,0-7-3.1-12.38-.19-.39.2-.59.78-.59a16.32,16.32,0,0,1,2.13,3.49,21.5,21.5,0,0,1,1.93,6.58,12.27,12.27,0,0,1,0,5.42,6,6,0,0,1-1.35,2.51c-2.13,2.71-6.78,2.71-13.94.2,3.87,5,6.39,8.51,7.16,10.45,1.36,2.9,1.75,5.22,1.17,6.58a.57.57,0,0,1-.2.38c-1.35,2.52-3.67,3.29-6.77,2.13a26.18,26.18,0,0,1-9.48-6.77A44.4,44.4,0,0,1,468.73,345c-1.93-4.45-2.32-8.51-1.16-11.8a10.43,10.43,0,0,1,2.91-4.26,4.15,4.15,0,0,1,4.45-.77c1.74.58,2.51,1.74,2.13,3.29a4.29,4.29,0,0,0-2.52-1.74,1.88,1.88,0,0,0-2.32.58,4,4,0,0,0-1.36,1.93C469.7,335.47,471.83,341.08,477.25,348.82Z"/><path d="M104.51,259.8c.38-18.39-10.84-35-33.48-50.12-4.84-3.29-12.58-7.94-23-13.94s-17.62-10.26-21.49-13a104.39,104.39,0,0,0,3.68-15.09c2.13-12,1-21.29-3.29-28.06A2.57,2.57,0,0,0,25,138.07c-1-.2-1.17.19-.78,1.16,4.45,7.35,5.81,16.64,3.87,28.06a82.65,82.65,0,0,1-3.67,13.94c-5.23-4.26-7.94-8.13-7.94-11.42a1.93,1.93,0,0,0-1.35-1.94c-.39,0-.59.2-.78,1,0,5,2.9,10.45,8.71,16.45-.77,1.94-4.26,10.06-10.64,24h0c-.2.39-.2.58-.39,1h0l-2.52,5h0C4.64,226.13,1.74,234.45.77,240.45c-.38,2.32-.58,4.45-.77,6.38v1.94c0,6.77,1.55,12,4.64,15.48a18.48,18.48,0,0,0,10.84,6.58c4.26.78,8.71-.77,13.36-4.26a25.07,25.07,0,0,0,8.51-13.74l.58-1.93.2-.58a.71.71,0,0,1,.19-.58c1.35-7.94.77-15.1-1.94-21.29s-6-10.45-10.06-12.78c-.77-.38-1.35-.58-1.93,0-.59.39-.39,1,.77,1.36,3.29,1.93,6.19,6,8.51,12.19a40.7,40.7,0,0,1,1.75,20.71c-.2,1.16-.39,2.13-.58,2.9L34.06,255a16,16,0,0,1-8.71,8.71,14.81,14.81,0,0,1-7.55,1c-6-1-9.87-4.84-11.8-11.61l-.58-2.13A22.61,22.61,0,0,1,5,241.41c.58-2.9,1.16-5.8,1.94-8.7s3.48-9.68,7.93-20.52l1.16-2.9c3.1-7,6.2-14.32,8.91-22.06q7.25,6.68,28.44,20.32c7,4.45,11.62,7.54,14.33,9.29Q97.05,236.28,101.41,254l.77,3.87a42.35,42.35,0,0,1-.19,8.71c-1.55,9.29-6,13.16-13.55,12-5-.77-9.87-4.26-14.7-10.45-7.94-9.87-11.81-22.06-11.62-36.19A1.69,1.69,0,0,0,61,230.58c-.58-.2-1,.19-1,.77-1.16,17.23,3.1,31.16,12.58,41.42,4.65,5,9.49,8.13,14.13,8.9a15.83,15.83,0,0,0,5.23,0q9.87-1.46,12.19-14.52a23.32,23.32,0,0,0,.58-4.25c3.68,7.74,5,15.09,3.87,22.06-.19,1.35-.58,2.52-.77,3.48s-.2,1.55.38,1.55,1.17-1.35,1.75-4.64C110.89,277.22,109.35,268.9,104.51,259.8Z"/><path d="M220.43,54.46c-.38-1-4.25,0-11.22,3.1-.2-16.26-2.13-28.26-6-35.8a21.88,21.88,0,0,0-7.74-8.91c-7.94-5.42-17.42-5.42-28.06.2a80.29,80.29,0,0,0-9.1,5.61L155.21,21c-13.16,11-21.29,23.61-24.58,38.13l-.38,2.51c-1.74,8.52-1.36,15.49,1.35,20.9a21,21,0,0,0,7,8.13q7.83,4.93,16.26.58c8.32-4.25,13.54-12.77,15.48-25.35a50.23,50.23,0,0,0,1-9.09V55.24A109.64,109.64,0,0,0,169,34c-.19-1-.58-1.55-1.35-1.74s-1.16.19-.78,1.16a96.38,96.38,0,0,1,1.55,23v1.35a54,54,0,0,1-.77,6.78c-2.13,11.8-6.77,19.35-13.74,23-4.45,2.32-8.32,1.93-12-1a13.09,13.09,0,0,1-4.07-5c-2.32-4.45-2.9-10.65-1.74-18.78l.39-2.32a62.48,62.48,0,0,1,8.71-22.06,74.49,74.49,0,0,1,15.48-18l2.71-1.93A44.69,44.69,0,0,1,169,15c6-3.09,11.42-3.87,16.45-2.71,4.84,1.36,8.71,4.65,11.62,10.07,4.06,8.12,6.38,20.7,6.77,37.93a32.43,32.43,0,0,0-5,2.9l-2.91,1.94A118.4,118.4,0,0,0,170.5,86.4c-7.16,8.12-11.22,15.87-12,23a6.86,6.86,0,0,0,.58,2.32c.39.77,1.16,1.74,1.94,2.9,1,1,1.35,1.16,1.35.58.78-6.77,4.45-14.51,11-23a126,126,0,0,1,22.45-22.84l2.91-2.12c1.16-.78,2.71-1.94,4.84-3.29A182.51,182.51,0,0,1,198.18,109c-3.68,14.32-8.71,24.77-14.91,31a1.29,1.29,0,0,0-.38,1.36,1.24,1.24,0,0,0,1,1,2.1,2.1,0,0,0,1,.19c.2-.19.39-.19.58-.39,6.78-6.77,12.39-17.8,16.84-33.48a200.4,200.4,0,0,0,7.36-47.8,37.31,37.31,0,0,1,8.12-3.29c1.75-.39,2.91-.77,3.1-1.55A8.09,8.09,0,0,0,220.43,54.46Z"/><path d="M164.12,107.3a37.88,37.88,0,0,0-2.13,7.93c-.39,3.49-3.87,23.81,2.13,28.64,8.7,6.78,19-3.67,19-3.67s2.32-1.94,6-7.94c3.68-5.8-3.87,9.87-3.87,9.87s-11.22,10.65-22.06,7c-12.2-4.26-7.94-31-4.07-43.93,1.94-6.58,6.2-6.78,6.2-6.78l1.16,4.46-3.87.77Z"/><path d="M513.63,112.52q-13.06.87-26.7-9.29a97.07,97.07,0,0,1-10.65-9.67c6.2-2.71,10.84-3.29,13.74-1.75,1,.39,1.74.39,2.33-.38.19-.39.19-.78-.59-1-4.45-2.32-10.64-2.32-18.57.19C471.64,88.91,466,81.94,456,69.36l-2.13-2.9c-7.93-10.06-14.51-17.22-19.54-20.9a61.41,61.41,0,0,0-5.23-3.48l-1.74-.78c-6-3.09-11.23-4.06-16.06-3.09-4.65,1.16-8.33,3.29-10.84,6.58s-3.29,7.93-2.32,13.93a24.69,24.69,0,0,0,8.12,13.93L407.77,74l.58.39c.2.19.39.19.58.38,6.39,4.84,13.16,7.55,19.74,8.13,6.78.58,12-.58,15.87-3.09a1.48,1.48,0,0,0,1-1.75c-.19-.77-.58-.77-1.55,0-3.29,1.94-8.13,2.71-14.71,1.94a39.17,39.17,0,0,1-19.16-7.94A10.78,10.78,0,0,1,408,70.14l-1.55-1.55c-2.91-3.68-4.26-7.55-3.87-11.61a13.78,13.78,0,0,1,2.51-7.16q5.52-7.26,15.68-5.23l2.13.58A25.65,25.65,0,0,1,431.58,49c2.32,1.75,4.64,3.68,6.77,5.62s7,7.54,14.51,16.45L455,73.43q7.26,9,15.68,18c-6.39,2.32-16.64,7.54-31,15.87-7.16,4.06-12,7-14.7,8.51-20.52,11.42-36.58,15.68-48.58,12.78l-3.87-1.17a28.47,28.47,0,0,1-7.55-4.25c-7.55-5.62-8.9-11.42-4.45-17.42,3.1-4.07,8.32-6.78,16.06-8.32,12.39-2.52,25-.39,37.55,6.38.77.2,1.35.2,1.74-.38s.39-1-.39-1.36c-14.9-8.9-29-11.61-42.57-7.93-6.78,1.74-11.42,4.64-14.33,8.51a17.75,17.75,0,0,0-2.32,4.65c-2.13,6.38.2,12.19,7.36,17.61,1.54,1.16,2.71,1.93,3.48,2.51-8.71-.19-15.87-2.51-21.29-6.58a16.64,16.64,0,0,1-2.71-2.32c-.77-.58-1.16-.77-1.55-.39s.78,1.75,3.29,3.49c6.2,4.64,14.52,7,24.78,7,16.06,8.7,36.19,6.38,59.8-6.78,5.22-2.9,12.77-7.55,22.83-14.13s17.23-11,21.49-13.16a127.8,127.8,0,0,0,11.61,10.26c9.67,7.36,18.38,10.65,26.32,10.06a3.19,3.19,0,0,0,2.32-1C514.8,112.91,514.6,112.52,513.63,112.52Z"/><path d="M225.08,438.43a14,14,0,0,0-6.58-3.29,34.27,34.27,0,0,0-8.9-1.16q-4.65,0-11,.58c-4.25.58-8.12,1.16-11.41,1.74s-7.36,1.55-11.81,2.71c-4.64,1.16-8.13,2.13-10.64,2.9s-5.81,1.75-9.68,2.91-6,1.74-6.58,1.93-2.13.58-4.65,1.36-5.61,1.74-9.09,2.71c-3.68,1-6.19,1.35-7.94,1a90,90,0,0,0,18.78-10.06,105.29,105.29,0,0,0,16.64-13.93,26.18,26.18,0,0,0,2.13-2.52l.77-1c4.65-5.61,7.16-11.22,7.74-16.64s-1.35-10.26-6-14.52l-.19-.19-.39-.39-1-1c-5.62-4.26-12.58-6.58-20.91-6.78h-2.32c-9.48.39-16.83,3.49-22.25,9.29a16.92,16.92,0,0,0-4.45,8.9,8.93,8.93,0,0,0,3.09,8.71,17.22,17.22,0,0,0,10.65,4.45c4.45.58,7.35.2,8.7-1.16.39-.58,0-.58-1.35-.19a21.81,21.81,0,0,1-6.58.19,13.14,13.14,0,0,1-8.13-3.67c-2.32-2.33-3.48-4.84-2.9-7.55a14.51,14.51,0,0,1,3.48-7.36c4.65-5,11-8.12,18.77-9.29l2.13-.19c8.71-.77,15.29,1,19.94,5.23l1.93,1.93,1,1.55c4.65,7.35,2.9,16.26-5.22,26.9l-.78,1c-1.16,1.55-3.1,3.68-5.61,6.58s-7,6.58-13,11a83.52,83.52,0,0,1-16.84,10.45c-.58.19-.58.39-.19,1,.58.58,2.13.77,4.45.58a18.46,18.46,0,0,1,3.29-.39c1.16-.19,2.32-.39,3.68-.58,1.35-.39,2.52-.58,3.48-.77a24.65,24.65,0,0,0,3.1-.78c1-.19,1.74-.38,1.93-.38q22.07-6.39,44.71-11c17-3.48,28.26-2.71,33.29,1.94q4.35,4.07.58,8.13a.9.9,0,0,0-.19,1.16c.19.39,1-.19,2.12-1.36a9.15,9.15,0,0,0,2.13-5A5.7,5.7,0,0,0,225.08,438.43Z"/><path d="M414.35,460.11c-.19-.39-1-.2-1.74.19-1,.58-2.13,1.16-3.87,2.32A164.9,164.9,0,0,0,400.22,428c-.19-.58-.58-.77-1.35-.77a2.5,2.5,0,0,0-1.94.77c-.58-.19-1.16.58-1.16,2.13,0,13.16-2.32,25.16-7,35.8l-.78,1.55c-3.87,8.13-8.71,13.55-14.51,16.64s-11,2.33-15.87-2.32L355.91,480a36,36,0,0,1-4.07-6.77,31.25,31.25,0,0,1-2.71-12.58,30.27,30.27,0,0,0,5.61-1l1.55-.39a51.57,51.57,0,0,0,9.49-3.87,55.39,55.39,0,0,0,15.67-12.58,64,64,0,0,0,10.65-16.45c2.12-5.42,3.09-9.87,2.9-13.55a14.8,14.8,0,0,0-1.16-5,6.49,6.49,0,0,0-2.32-2.71c-4.26-2.9-9.87-2.51-16.84,1a35,35,0,0,0-10.45,8.52A77.86,77.86,0,0,0,351.07,435a73.82,73.82,0,0,0-6.39,22.64,13.33,13.33,0,0,1-11.8-7.94c-2.71-5.22-2.52-11.22,1-18a17.47,17.47,0,0,1,7.94-8.33c.58-.38.77-.77.38-1.16s-1-.38-1.74,0a21.2,21.2,0,0,0-8.9,9.49c-1.94,4.25-2.9,7.93-2.71,11.22a22,22,0,0,0,2.13,8.52,16.38,16.38,0,0,0,13.74,9.29,34.92,34.92,0,0,0,3.68,18.19c2.71,5.22,6,8.9,10.06,10.64l1.55.58c4.06,1.36,8.32.78,13-1.74q9.57-4.94,16.25-19.74l.78-1.74a94.33,94.33,0,0,0,7.54-31.74c2.91,10.06,5.23,20.51,7.17,31a50.5,50.5,0,0,0-8.33,9.67l-1.16,1.94a66.39,66.39,0,0,0-7.55,20.51,78.13,78.13,0,0,0-1.54,9.87l-.2,1.16c-.38,5,0,8.52,1.16,10.65s2.71,3.09,4.65,3.09a7.87,7.87,0,0,0,3.48-1c2.52-1.36,5.23-4.07,7.94-8.33,5.22-8.12,7.74-17.61,7.93-28.45a152.78,152.78,0,0,0-1.55-20.51c1.55-1,2.91-1.93,4.45-2.71l.78-.58A10,10,0,0,0,414.35,460.11Zm-60.77-24.78A64.66,64.66,0,0,1,364,417.14q6.11-7,11.62-9.87a19.18,19.18,0,0,1,7.74-2.32c3.87.19,6.58,1.55,7.93,4.45.58,1,.78,2.9.58,5.81S390.35,422,388,426.62a56.23,56.23,0,0,1-24.58,25.16,49.12,49.12,0,0,1-7.16,3.1l-1.55.39a24,24,0,0,1-6,1.35C348.94,450.24,350.68,442.88,353.58,435.33ZM402,511.2c-2.33,4.64-4.46,7.55-6.78,8.71s-3.87.77-5-1.36-1.55-5.8-1.35-11v-1.35l.19-3.87a65.23,65.23,0,0,1,6.58-21.87l1.35-2.33a48.15,48.15,0,0,1,7.55-9.87,155,155,0,0,1,2.13,21.49A46.88,46.88,0,0,1,402,511.2Z"/></g></g></svg>