<svg width="192" height="192" viewBox="0 0 192 192" fill="none" xmlns="http://www.w3.org/2000/svg">
<circle cx="96" cy="96" r="96" fill="#F19D1F"/>
<mask id="path-2-inside-1_15_7" fill="white">
<path d="M104.741 69.8711C123.179 69.8711 133.634 82.0719 135.159 96.8093H135.624C138.442 96.8055 141.232 97.3568 143.837 98.4317C146.441 99.5065 148.808 101.084 150.803 103.074C152.798 105.064 154.381 107.427 155.462 110.029C156.544 112.631 157.102 115.42 157.105 118.238C157.101 121.055 156.542 123.843 155.461 126.445C154.379 129.046 152.796 131.409 150.801 133.398C148.806 135.387 146.44 136.964 143.835 138.038C141.231 139.113 138.441 139.664 135.624 139.66H73.8582C71.0411 139.664 68.2509 139.113 65.6468 138.038C63.0427 136.964 60.6758 135.387 58.6811 133.398C56.6864 131.409 55.1031 129.046 54.0215 126.445C52.9399 123.843 52.3813 121.055 52.3775 118.238C52.3805 115.42 52.9386 112.631 54.0198 110.029C55.1011 107.427 56.6843 105.064 58.679 103.074C60.6738 101.084 63.041 99.5065 65.6455 98.4317C68.2499 97.3568 71.0406 96.8055 73.8582 96.8093H74.3237C75.8538 81.973 86.3033 69.8711 104.735 69.8711H104.741ZM104.741 78.5868C92.6917 78.5868 82.184 88.0879 82.184 101.214C82.184 103.291 80.328 104.926 78.2044 104.926H74.1898C66.8531 104.926 60.9011 110.75 60.9011 117.935C60.9011 125.121 66.8531 130.945 74.1898 130.945H135.298C142.629 130.945 148.581 125.126 148.581 117.935C148.581 110.75 142.635 104.926 135.298 104.926H131.278C129.154 104.926 127.298 103.297 127.298 101.214C127.298 87.9191 116.791 78.581 104.741 78.581V78.5868ZM54.5069 94.0457C54.911 95.0208 54.948 96.1092 54.611 97.1095C54.274 98.1097 53.5859 98.9539 52.6742 99.4857L52.1447 99.7475L46.7571 101.982C45.736 102.404 44.5928 102.422 43.5583 102.034C42.5238 101.646 41.6751 100.88 41.1833 99.8908C40.6916 98.9014 40.5935 97.7623 40.9088 96.7034C41.2241 95.6445 41.9293 94.7446 42.8822 94.1853L43.4175 93.9177L48.8051 91.6893C49.8737 91.246 51.0746 91.2452 52.1439 91.687C53.2131 92.1289 54.0631 92.9773 54.5069 94.0457ZM92.2495 65.9264L91.2487 66.2639C88.2228 67.3245 85.3627 68.8094 82.7542 70.6741C79.9529 69.7641 76.938 69.7473 74.1267 70.6259C71.3154 71.5044 68.8467 73.235 67.062 75.5781C65.2773 77.9213 64.265 80.7611 64.165 83.7048C64.0651 86.6485 64.8824 89.5505 66.504 92.0093C63.6683 92.8057 60.9832 94.0638 58.5564 95.733C55.8897 91.1496 54.8937 85.7837 55.7377 80.5486C56.5817 75.3135 59.2136 70.5326 63.1856 67.0195C67.1576 63.5064 72.2242 61.4781 77.5232 61.2799C82.8221 61.0817 88.0261 62.7257 92.2495 65.9322V65.9264ZM46.1986 66.1068L46.8153 66.3104L52.2029 68.5446C53.216 68.9693 54.0317 69.7604 54.487 70.7601C54.9424 71.7598 55.004 72.8944 54.6595 73.9375C54.3149 74.9806 53.5897 75.8553 52.6285 76.3871C51.6673 76.9189 50.5409 77.0687 49.4742 76.8064L48.8749 76.6144L43.4873 74.3802C42.4769 73.9543 41.6639 73.1636 41.21 72.1654C40.7562 71.1672 40.6947 70.0348 41.038 68.9934C41.3812 67.952 42.1039 67.0779 43.0623 66.5452C44.0207 66.0125 45.1445 65.8601 46.2102 66.1184L46.1986 66.1068ZM68.3949 48.7337L68.6626 49.2631L70.8909 54.6566C71.3068 55.6769 71.3213 56.8166 70.9316 57.8472C70.5419 58.8777 69.7768 59.7226 68.7899 60.2124C67.803 60.7022 66.6673 60.8005 65.6109 60.4876C64.5545 60.1748 63.6556 59.4739 63.0946 58.5257L62.8269 57.9962L60.5986 52.6028C60.1827 51.5825 60.1682 50.4427 60.5579 49.4122C60.9476 48.3817 61.7127 47.5368 62.6996 47.047C63.6865 46.5572 64.8222 46.4589 65.8786 46.7718C66.9349 47.0846 67.8339 47.7855 68.3949 48.7337ZM93.7273 46.8777C94.6933 47.2786 95.4831 48.0132 95.953 48.9476C96.4229 49.882 96.5415 50.9541 96.2873 51.9686L96.0837 52.5795L93.8553 57.973C93.4306 58.986 92.6395 59.8017 91.6398 60.2571C90.6401 60.7124 89.5055 60.774 88.4624 60.4295C87.4193 60.085 86.5446 59.3597 86.0128 58.3985C85.481 57.4374 85.3312 56.311 85.5935 55.2442L85.7913 54.6275L88.0255 49.2399C88.2447 48.7103 88.5661 48.2292 88.9713 47.8239C89.3765 47.4186 89.8576 47.0971 90.3871 46.8777C90.9166 46.6584 91.4841 46.5455 92.0572 46.5455C92.6303 46.5455 93.1978 46.6583 93.7273 46.8777Z"/>
</mask>
<path d="M104.741 69.8711C123.179 69.8711 133.634 82.0719 135.159 96.8093H135.624C138.442 96.8055 141.232 97.3568 143.837 98.4317C146.441 99.5065 148.808 101.084 150.803 103.074C152.798 105.064 154.381 107.427 155.462 110.029C156.544 112.631 157.102 115.42 157.105 118.238C157.101 121.055 156.542 123.843 155.461 126.445C154.379 129.046 152.796 131.409 150.801 133.398C148.806 135.387 146.44 136.964 143.835 138.038C141.231 139.113 138.441 139.664 135.624 139.66H73.8582C71.0411 139.664 68.2509 139.113 65.6468 138.038C63.0427 136.964 60.6758 135.387 58.6811 133.398C56.6864 131.409 55.1031 129.046 54.0215 126.445C52.9399 123.843 52.3813 121.055 52.3775 118.238C52.3805 115.42 52.9386 112.631 54.0198 110.029C55.1011 107.427 56.6843 105.064 58.679 103.074C60.6738 101.084 63.041 99.5065 65.6455 98.4317C68.2499 97.3568 71.0406 96.8055 73.8582 96.8093H74.3237C75.8538 81.973 86.3033 69.8711 104.735 69.8711H104.741ZM104.741 78.5868C92.6917 78.5868 82.184 88.0879 82.184 101.214C82.184 103.291 80.328 104.926 78.2044 104.926H74.1898C66.8531 104.926 60.9011 110.75 60.9011 117.935C60.9011 125.121 66.8531 130.945 74.1898 130.945H135.298C142.629 130.945 148.581 125.126 148.581 117.935C148.581 110.75 142.635 104.926 135.298 104.926H131.278C129.154 104.926 127.298 103.297 127.298 101.214C127.298 87.9191 116.791 78.581 104.741 78.581V78.5868ZM54.5069 94.0457C54.911 95.0208 54.948 96.1092 54.611 97.1095C54.274 98.1097 53.5859 98.9539 52.6742 99.4857L52.1447 99.7475L46.7571 101.982C45.736 102.404 44.5928 102.422 43.5583 102.034C42.5238 101.646 41.6751 100.88 41.1833 99.8908C40.6916 98.9014 40.5935 97.7623 40.9088 96.7034C41.2241 95.6445 41.9293 94.7446 42.8822 94.1853L43.4175 93.9177L48.8051 91.6893C49.8737 91.246 51.0746 91.2452 52.1439 91.687C53.2131 92.1289 54.0631 92.9773 54.5069 94.0457ZM92.2495 65.9264L91.2487 66.2639C88.2228 67.3245 85.3627 68.8094 82.7542 70.6741C79.9529 69.7641 76.938 69.7473 74.1267 70.6259C71.3154 71.5044 68.8467 73.235 67.062 75.5781C65.2773 77.9213 64.265 80.7611 64.165 83.7048C64.0651 86.6485 64.8824 89.5505 66.504 92.0093C63.6683 92.8057 60.9832 94.0638 58.5564 95.733C55.8897 91.1496 54.8937 85.7837 55.7377 80.5486C56.5817 75.3135 59.2136 70.5326 63.1856 67.0195C67.1576 63.5064 72.2242 61.4781 77.5232 61.2799C82.8221 61.0817 88.0261 62.7257 92.2495 65.9322V65.9264ZM46.1986 66.1068L46.8153 66.3104L52.2029 68.5446C53.216 68.9693 54.0317 69.7604 54.487 70.7601C54.9424 71.7598 55.004 72.8944 54.6595 73.9375C54.3149 74.9806 53.5897 75.8553 52.6285 76.3871C51.6673 76.9189 50.5409 77.0687 49.4742 76.8064L48.8749 76.6144L43.4873 74.3802C42.4769 73.9543 41.6639 73.1636 41.21 72.1654C40.7562 71.1672 40.6947 70.0348 41.038 68.9934C41.3812 67.952 42.1039 67.0779 43.0623 66.5452C44.0207 66.0125 45.1445 65.8601 46.2102 66.1184L46.1986 66.1068ZM68.3949 48.7337L68.6626 49.2631L70.8909 54.6566C71.3068 55.6769 71.3213 56.8166 70.9316 57.8472C70.5419 58.8777 69.7768 59.7226 68.7899 60.2124C67.803 60.7022 66.6673 60.8005 65.6109 60.4876C64.5545 60.1748 63.6556 59.4739 63.0946 58.5257L62.8269 57.9962L60.5986 52.6028C60.1827 51.5825 60.1682 50.4427 60.5579 49.4122C60.9476 48.3817 61.7127 47.5368 62.6996 47.047C63.6865 46.5572 64.8222 46.4589 65.8786 46.7718C66.9349 47.0846 67.8339 47.7855 68.3949 48.7337ZM93.7273 46.8777C94.6933 47.2786 95.4831 48.0132 95.953 48.9476C96.4229 49.882 96.5415 50.9541 96.2873 51.9686L96.0837 52.5795L93.8553 57.973C93.4306 58.986 92.6395 59.8017 91.6398 60.2571C90.6401 60.7124 89.5055 60.774 88.4624 60.4295C87.4193 60.085 86.5446 59.3597 86.0128 58.3985C85.481 57.4374 85.3312 56.311 85.5935 55.2442L85.7913 54.6275L88.0255 49.2399C88.2447 48.7103 88.5661 48.2292 88.9713 47.8239C89.3765 47.4186 89.8576 47.0971 90.3871 46.8777C90.9166 46.6584 91.4841 46.5455 92.0572 46.5455C92.6303 46.5455 93.1978 46.6583 93.7273 46.8777Z" fill="white" stroke="white" stroke-width="2" mask="url(#path-2-inside-1_15_7)"/>
</svg>
